<?xml version="1.0" encoding="utf-8"?>
<!-- Generator: Adobe Illustrator 21.1.0, SVG Export Plug-In . SVG Version: 6.00 Build 0)  -->
<svg version="1.1" id="Layer_1" xmlns="http://www.w3.org/2000/svg" xmlns:xlink="http://www.w3.org/1999/xlink" x="0px" y="0px"
	 viewBox="0 0 1400 980" style="enable-background:new 0 0 1400 980;" xml:space="preserve">
<style type="text/css">
	.st0{fill:#F2F2F3;}
	.st1{fill:rgba(65, 64, 66, 0.6);}
	.st2{fill:none;stroke:#414042;stroke-linejoin:round;stroke-miterlimit:10;}
</style>
<rect class="st0" width="1400" height="980"/>
<g>
	<g>
		<g>
			<path class="st1" d="M468,283.7h-54.4c-0.4,0-0.8-0.2-1.1-0.5l-11.7-13.1l-14.4-15.8c-0.1-0.2-0.3-0.4-0.3-0.6l-5.5-17.9
				c0-0.1-0.1-0.3-0.1-0.4v-61.3c0-0.3,0.1-0.6,0.3-0.8l42.7-63.3c0.2-0.3,0.4-0.5,0.7-0.6l35.8-13.8c0.6-0.2,1.4,0,1.8,0.5
				l46.1,63.3c0.2,0.3,0.3,0.6,0.3,0.9v88.8c0,0.4-0.2,0.9-0.5,1.1l-38.5,33C468.7,283.5,468.3,283.7,468,283.7z M414.2,280.7h53.2
				l37.6-32.2v-87.6l-45.2-62L425.6,112l-42.2,62.6v60.6l5.3,17.4l14.2,15.6L414.2,280.7z"/>
		</g>
		<g>
			<path class="st1" d="M406,183.3c-0.4,0-0.7-0.1-1-0.4c-0.3-0.3-0.5-0.7-0.5-1.1v-8.4c0-0.1,0-0.3,0.1-0.4l18.6-62.6
				c0.1-0.4,0.5-0.8,0.9-1l25.6-9.9c0.4-0.1,0.8-0.1,1.2,0c0.4,0.2,0.7,0.5,0.8,0.9l26.7,75.3c0.2,0.4,0.1,0.9-0.2,1.3
				c-0.3,0.4-0.7,0.6-1.1,0.7l-70.9,5.7C406.1,183.3,406,183.3,406,183.3z M407.5,173.6v6.6l67.3-5.4l-25.5-72l-23.5,9L407.5,173.6z
				"/>
		</g>
		<g>
			<path class="st1" d="M399.8,219.4l-19.3-44.7c-0.2-0.6-0.1-1.3,0.3-1.7c0.5-0.4,1.1-0.5,1.7-0.3l15.5,7.7l-1.3,2.7l-11.8-5.9
				l17.7,41L399.8,219.4z"/>
		</g>
		<g>
			<path class="st1" d="M400.4,269.1l-0.7-79.2l-3.6-7.5c-0.3-0.6-0.2-1.3,0.3-1.7l8.6-8.4l2.1,2.1l-7.8,7.7l2.1,4.3l3.4-5.5
				c0.4-0.7,1.4-0.9,2.1-0.5c0.5,0.3,0.7,0.8,0.7,1.3c0,0.3-0.1,0.5-0.2,0.8l-4.6,7.4l0.7,79.1L400.4,269.1z"/>
		</g>
		<g>
			
				<rect x="437.9" y="223.4" transform="matrix(1.369645e-02 -0.9999 0.9999 1.369645e-02 172.371 696.7308)" class="st1" width="3" height="75.1"/>
		</g>
		<g>
			<path class="st1" d="M469.3,282.8l-2.8-1.2l8.8-20.4v-85c0-0.6,0.3-1.1,0.8-1.3l29.6-15.8l1.4,2.6L478.4,177v84.5
				c0,0.2,0,0.4-0.1,0.6L469.3,282.8z"/>
		</g>
		<g>
			
				<rect x="475.7" y="253.8" transform="matrix(0.9225 -0.386 0.386 0.9225 -60.4441 209.6155)" class="st1" width="32.1" height="3"/>
		</g>
		<g>
			<path class="st1" d="M412.8,152.9l-0.6-2.9l51.7-10l18.2-13.1l1.8,2.4l-18.4,13.3c-0.2,0.1-0.4,0.2-0.6,0.3L412.8,152.9z"/>
		</g>
		<g>
			<path class="st1" d="M421.2,282.6l-2.9-0.9l6.8-21l5.9-81l-8-68.8l3-0.3l8,68.9c0,0.1,0,0.2,0,0.3l-5.9,81.3c0,0.1,0,0.2-0.1,0.4
				L421.2,282.6z"/>
		</g>
		<g>
			
				<rect x="406.7" y="268.5" transform="matrix(0.6582 -0.7529 0.7529 0.6582 -60.1632 407.5754)" class="st1" width="24" height="3"/>
		</g>
		<g>
			
				<rect x="449.4" y="178.3" transform="matrix(0.9998 -2.105573e-02 2.105573e-02 0.9998 -4.5247 9.543)" class="st1" width="3" height="82.7"/>
		</g>
		<g>
			
				<rect x="412.8" y="217" transform="matrix(0.7994 -0.6008 0.6008 0.7994 -60.0523 296.6893)" class="st1" width="3" height="42.6"/>
		</g>
		<g>
			<rect x="390.4" y="171.5" transform="matrix(0.8741 -0.4857 0.4857 0.8741 -43.92 214.481)" class="st1" width="3" height="41"/>
		</g>
		<g>
			
				<rect x="462.6" y="185.8" transform="matrix(0.4255 -0.905 0.905 0.4255 110.5361 548.8092)" class="st1" width="49.8" height="3"/>
		</g>
		<g>
			
				<rect x="480.6" y="235.6" transform="matrix(0.3375 -0.9413 0.9413 0.3375 108.0586 627.679)" class="st1" width="38.8" height="3"/>
		</g>
	</g>
	<g>
		<g>
			<path class="st1" d="M705.4,300.9h-37.5c-0.4,0-0.8-0.2-1.1-0.4s-0.4-0.7-0.4-1.1l1.7-168c0-0.2,0-0.4,0.1-0.5
				c2.1-5.1,20.4-50.3,21-51.7c0.3-0.5,0.8-0.9,1.4-0.8c0.6,0,1.1,0.4,1.3,1l17.2,50.9c0.1,0.2,0.1,0.3,0.1,0.5l-2.4,168.7
				C706.8,300.2,706.2,300.9,705.4,300.9z M669.4,297.9h34.5l2.4-166.9L690.4,84c-4,9.7-14.7,36.1-19.3,47.7L669.4,297.9z"/>
		</g>
		<g>
			<path class="st1" d="M667.8,300.9c-0.2,0-0.4,0-0.7-0.1l-20-9.6c-0.5-0.2-0.8-0.8-0.8-1.4V137.3c0-0.3,0.1-0.6,0.3-0.9l42.7-57.5
				c0.5-0.6,1.3-0.8,1.9-0.4c0.7,0.4,0.9,1.2,0.7,1.9l-20.9,51.4l-1.7,167.7c0,0.5-0.3,1-0.7,1.3
				C668.4,300.8,668.1,300.9,667.8,300.9z M649.4,288.8l17,8.2l1.7-165.6c0-0.2,0-0.4,0.1-0.5l16.5-40.7l-35.3,47.6V288.8z"/>
		</g>
		<g>
			<path class="st1" d="M705.4,300.9c-0.2,0-0.5-0.1-0.7-0.2c-0.5-0.3-0.8-0.8-0.8-1.3l2.4-168.4l-17.1-50.7
				c-0.2-0.7,0.1-1.5,0.8-1.8c0.7-0.3,1.5,0,1.9,0.6l31.3,54.4c0.1,0.2,0.2,0.5,0.2,0.7v154.5c0,0.5-0.3,1-0.7,1.3l-16.5,10.7
				C705.9,300.8,705.6,300.9,705.4,300.9z M696.8,93.7l12.3,36.5c0.1,0.2,0.1,0.3,0.1,0.5l-2.4,165.9l13.5-8.7V134.6L696.8,93.7z"/>
		</g>
		<g>
			<path class="st1" d="M648.3,138.7l-0.8-2.9l21.7-5.9c0.1,0,0.2,0,0.4-0.1l38.2-0.7c0.1,0,0.3,0,0.4,0l14.1,3.4l-0.7,2.9
				l-13.9-3.4l-37.8,0.7L648.3,138.7z"/>
		</g>
		<g>
			<path class="st1" d="M707,188c-0.1,0-0.3,0-0.4-0.1l-37.8-10.3c-0.2,0-0.3-0.1-0.5-0.2L647,162.6l1.7-2.5l21.1,14.7l36.8,10.1
				l14.3-9.9l1.7,2.5l-14.9,10.3C707.6,187.9,707.3,188,707,188z"/>
		</g>
		<g>
			<path class="st1" d="M707.8,193.5c-0.1,0-0.3,0-0.4-0.1l-38.5-10.3c-0.2-0.1-0.4-0.1-0.6-0.3l-21.3-17.2l1.9-2.3l21.1,17l37.5,10
				l13.5-11.5l1.9,2.3l-14.1,12C708.5,193.4,708.1,193.5,707.8,193.5z"/>
		</g>
		<g>
			
				<rect x="656.8" y="189.1" transform="matrix(0.5958 -0.8032 0.8032 0.5958 103.7739 610.4458)" class="st1" width="3" height="26"/>
		</g>
		<g>
			<rect x="664" y="212.3" transform="matrix(0.8037 -0.595 0.595 0.8037 7.697 451.0022)" class="st1" width="46.8" height="3"/>
		</g>
		<g>
			<path class="st1" d="M669.3,238.4l-1.4-2.6l38-20.6c0.1-0.1,0.3-0.1,0.5-0.2l15.3-2.6l0.5,3l-15.1,2.5L669.3,238.4z"/>
		</g>
		<g>
			<path class="st1" d="M668.1,275.1c-0.3,0-0.6-0.1-0.9-0.3L647,260.3c-0.4-0.3-0.6-0.7-0.6-1.2v-10.7c0-0.5,0.3-1,0.8-1.3
				c0.5-0.3,1-0.3,1.5,0l19.6,11.6l36.9-20.7l15.5-22.4c0.4-0.5,1.1-0.8,1.7-0.6c0.6,0.2,1.1,0.8,1.1,1.4v18.2
				c0,0.4-0.2,0.8-0.5,1.1l-15.8,14.5c-0.1,0.1-0.1,0.1-0.2,0.2l-38,24.4C668.7,275,668.4,275.1,668.1,275.1z M649.4,258.3
				l18.8,13.4l37-23.8l15.2-13.9v-12.8L707.4,240c-0.1,0.2-0.3,0.3-0.5,0.5l-38,21.3c-0.5,0.3-1,0.3-1.5,0l-18.1-10.7V258.3z"/>
		</g>
		<g>
			<path class="st1" d="M703.3,300.9h-15.5c-0.5,0-1-0.3-1.3-0.8l-15.8-28.3c-0.4-0.7-0.2-1.6,0.5-2l14.3-9.2
				c0.4-0.2,0.8-0.3,1.2-0.2c0.4,0.1,0.8,0.4,0.9,0.8l17,37.5c0.2,0.5,0.2,1-0.1,1.4C704.3,300.6,703.8,300.9,703.3,300.9z
				 M688.7,297.9H701l-15.3-33.8l-11.6,7.5L688.7,297.9z"/>
		</g>
		<g>
			<path class="st1" d="M671.9,166.9c-1.2,0-2.4-0.2-3.2-0.5l1-2.8c0.2,0.1,5.1,1.7,7.8-3c0.7-1.3,1.5-2.7,2.1-4.1
				c2.6-5.2,5.5-11,11.2-9.7c3.7,0.9,11.6-4.6,15.7-8.3l2,2.2c-1.2,1.1-12,10.5-18.4,8.9c-3.2-0.7-5.1,2.7-7.8,8.1
				c-0.7,1.4-1.4,2.9-2.2,4.3C677.9,165.9,674.6,166.9,671.9,166.9z"/>
		</g>
	</g>
	<g>
		<g>
			<path class="st1" d="M752,425.6c-0.4,0-0.8-0.2-1.1-0.5c-0.4-0.5-0.5-1.1-0.3-1.7l28.2-59.2c0.2-0.5,0.8-0.9,1.4-0.9h7.9
				c0.5,0,0.9,0.2,1.2,0.6s0.4,0.9,0.2,1.4L772.3,417c-0.1,0.4-0.5,0.8-0.9,0.9l-18.9,7.6C752.3,425.6,752.1,425.6,752,425.6z
				 M781.1,366.4L755,421.3l14.7-5.9l16.3-49H781.1z"/>
		</g>
		<g>
			<path class="st1" d="M813.6,423.2c-0.1,0-0.1,0-0.2,0l-42.7-5.2c-0.4-0.1-0.8-0.3-1.1-0.7c-0.2-0.4-0.3-0.8-0.2-1.3l17.2-51.6
				c0.1-0.4,0.5-0.8,0.9-0.9c0.4-0.2,0.9-0.1,1.3,0.2l14.8,10c0.3,0.2,0.5,0.5,0.6,0.8l10.7,33.4c0,0.1,0.1,0.3,0.1,0.5v13.4
				c0,0.4-0.2,0.8-0.5,1.1C814.3,423.1,814,423.2,813.6,423.2z M772.9,415.3l39.2,4.7v-11.5l-10.5-32.7l-12.7-8.6L772.9,415.3z"/>
		</g>
		<g>
			<path class="st1" d="M749.5,547.8c-0.5,0-1-0.3-1.3-0.7l-4.8-8.3c-0.1-0.3-0.2-0.6-0.2-0.9l7.2-113.9c0-0.6,0.4-1.1,0.9-1.3
				l18.9-7.6c0.5-0.2,1-0.1,1.4,0.2c0.4,0.3,0.7,0.8,0.6,1.3l-6.9,123.2c0,0.6-0.4,1.1-0.9,1.3l-14.5,6.5
				C750,547.8,749.8,547.8,749.5,547.8z M746.3,537.7l3.9,6.7l12.4-5.6l6.7-120l-15.9,6.3L746.3,537.7z"/>
		</g>
		<g>
			<path class="st1" d="M770,568.8c-0.1,0-0.1,0-0.2,0c-0.4-0.1-0.8-0.3-1-0.7l-5.5-8.6l-11.2,0.6c-0.8,0-1.4-0.5-1.6-1.2l-2.4-12.4
				c-0.1-0.7,0.2-1.4,0.9-1.7l14.5-6.5c0.6-0.3,1.4-0.1,1.8,0.4l15.1,19.6c0.5,0.6,0.4,1.5-0.2,2l-9.1,7.9
				C770.7,568.7,770.4,568.8,770,568.8z M764,556.5c0.5,0,1,0.3,1.3,0.7l5.1,7.8l6.7-5.9l-13.6-17.6l-12.3,5.6l1.9,9.9L764,556.5
				C763.9,556.5,764,556.5,764,556.5z"/>
		</g>
		<g>
			<path class="st1" d="M840.4,572.2C840.4,572.2,840.4,572.2,840.4,572.2l-70.5-3.4c-0.6,0-1.1-0.4-1.3-1s0-1.2,0.4-1.6l9.1-7.9
				c0.3-0.3,0.8-0.4,1.3-0.3l61.3,11.4c0.8,0.1,1.3,0.9,1.2,1.6C841.8,571.7,841.2,572.2,840.4,572.2z M773.8,566l44.4,2.2
				l-38.7-7.2L773.8,566z"/>
		</g>
		<g>
			<path class="st1" d="M840.4,572.2c-0.2,0-0.5-0.1-0.7-0.2c-0.5-0.2-0.8-0.7-0.8-1.2l-11-120.5c0-0.4,0.1-0.8,0.4-1.1l22.4-26.2
				c0.4-0.5,1-0.6,1.6-0.5c0.6,0.2,1,0.7,1.1,1.3l13.1,106c0,0.1,0,0.2,0,0.3l-2.1,27.2c0,0.5-0.3,0.9-0.7,1.2L841.2,572
				C840.9,572.2,840.7,572.2,840.4,572.2z M830.9,450.8l10.7,117.5l19.7-11.8l2-26.3l-12.6-102.5L830.9,450.8z"/>
		</g>
		<g>
			<path class="st1" d="M829.4,451.8c-0.1,0-0.1,0-0.2,0c-0.5,0-0.9-0.3-1.2-0.8l-15.8-28.6c-0.1-0.2-0.2-0.5-0.2-0.7v-13.2
				l-10.6-33.2c-0.2-0.6,0-1.3,0.6-1.7c0.5-0.4,1.3-0.3,1.8,0.1l32,25.8c0.1,0.1,0.2,0.2,0.3,0.3l16.9,23.4c0.4,0.6,0.4,1.3-0.1,1.9
				l-22.4,26.2C830.2,451.6,829.8,451.8,829.4,451.8z M815.1,421.3l14.5,26.3l20.2-23.6l-16.1-22.3l-28-22.5l9.2,28.6
				c0,0.1,0.1,0.3,0.1,0.5V421.3z"/>
		</g>
		<g>
			<path class="st1" d="M780.6,559.4l-3,0l2.3-141.6c0-0.1,0-0.1,0-0.2l6.6-52.9l3,0.4l-6.6,52.8L780.6,559.4z"/>
		</g>
		<g>
			
				<rect x="756.2" y="472.9" transform="matrix(0.5516 -0.8341 0.8341 0.5516 -63.8681 848.9205)" class="st1" width="3" height="21.9"/>
		</g>
		<g>
			<path class="st1" d="M764,522.6l-17.9-15.8c-0.6-0.5-0.7-1.3-0.3-1.9c0.4-0.6,1.2-0.9,1.9-0.5l4.3,2l-5.9-4.3l1.8-2.4l18.3,13.4
				c0.6,0.5,0.8,1.3,0.4,2c-0.4,0.7-1.2,0.9-1.9,0.6l-8.9-4.2l10.1,8.9L764,522.6z"/>
		</g>
		<g>
			
				<rect x="758.6" y="431" transform="matrix(0.6492 -0.7606 0.7606 0.6492 -70.0677 733.4857)" class="st1" width="3" height="23.3"/>
		</g>
		<g>
			
				<rect x="758.6" y="426.5" transform="matrix(0.5391 -0.8422 0.8422 0.5391 -17.7316 841.6451)" class="st1" width="3" height="21.1"/>
		</g>
		<g>
			<path class="st1" d="M811.2,402.2h-27.6c-0.2,0-0.3,0-0.5-0.1l-6.7-2.1l0.9-2.9l6.5,2.1h27.2l19.2-3.5l0.5,3l-19.3,3.6
				C811.4,402.2,811.3,402.2,811.2,402.2z"/>
		</g>
		<g>
			<path class="st1" d="M813.6,416.3c-0.2,0-0.5-0.1-0.7-0.2c-0.5-0.3-0.8-0.8-0.8-1.3v-6.5c0-0.6,0.4-1.2,1-1.4l21.3-7.6
				c0.7-0.3,1.5,0.1,1.8,0.7c0.3,0.7,0.1,1.5-0.5,1.9l-21.3,14.1C814.2,416.2,813.9,416.3,813.6,416.3z M815.1,409.3v2.7l8.7-5.8
				L815.1,409.3z"/>
		</g>
		<g>
			<path class="st1" d="M830.8,467.3c-0.3,0-0.6-0.1-0.8-0.3c-0.4-0.3-0.6-0.7-0.7-1.1l-0.3-3.6c-0.1-0.6,0.3-1.2,0.8-1.5l24.5-11.9
				c0.4-0.2,0.9-0.2,1.4,0c0.4,0.2,0.7,0.7,0.8,1.1l1,7.7c0.1,0.7-0.4,1.4-1,1.6l-25.1,7.7C831.1,467.2,831,467.3,830.8,467.3z
				 M832.1,463l0.1,0.7l22.2-6.8l-0.5-4.4L832.1,463z"/>
		</g>
		<g>
			<path class="st1" d="M833.4,498.9c-0.3,0-0.6-0.1-0.9-0.3c-0.4-0.3-0.6-0.7-0.6-1.2v-3.5c0-0.7,0.5-1.3,1.1-1.4l26.1-7.1
				c0.4-0.1,0.9,0,1.2,0.2s0.6,0.6,0.7,1.1l0.4,3.6c0.1,0.7-0.4,1.4-1.1,1.6l-26.6,7C833.6,498.9,833.5,498.9,833.4,498.9z
				 M834.9,495.1v0.4l23.4-6.2l-0.1-0.5L834.9,495.1z"/>
		</g>
		<g>
			<path class="st1" d="M833.4,502.4c-0.3,0-0.7-0.1-1-0.3c-0.3-0.3-0.5-0.7-0.5-1.2v-3.4c0-0.7,0.5-1.3,1.1-1.4l26.6-7
				c0.4-0.1,0.9,0,1.2,0.2c0.4,0.2,0.6,0.6,0.6,1.1l0.7,5.3c0.1,0.8-0.4,1.5-1.2,1.7l-27.2,5.1C833.6,502.4,833.5,502.4,833.4,502.4
				z M834.9,498.6v0.5l24.1-4.5l-0.3-2.2L834.9,498.6z"/>
		</g>
		<g>
			<rect x="762.5" y="539.8" class="st1" width="3" height="18.2"/>
		</g>
	</g>
	<g>
		<g>
			<path class="st1" d="M142.6,817c-0.3,0-0.6-0.1-0.8-0.2L105,793.4c-0.4-0.2-0.6-0.6-0.7-1.1c-0.1-0.4,0.1-0.9,0.4-1.2l32.7-36.1
				c0.2-0.2,0.4-0.4,0.7-0.4l137.3-37.2c0.4-0.1,0.9,0,1.3,0.2l36.8,25.8c0.4,0.3,0.6,0.6,0.6,1.1c0,0.4-0.1,0.9-0.4,1.2l-36.8,38.2
				c-0.2,0.2-0.4,0.3-0.7,0.4L143,817C142.9,817,142.7,817,142.6,817z M108.1,791.8l34.8,22.1L275,781.5l35.3-36.6l-34.8-24.4
				l-136.2,36.9L108.1,791.8z"/>
		</g>
		<g>
			<path class="st1" d="M312.6,746.1c0,0-0.1,0-0.1,0l-60.9-4.5c-0.6,0-1.1-0.4-1.3-1c-0.2-0.6,0-1.2,0.4-1.6l24.1-21.3
				c0.5-0.5,1.3-0.5,1.9-0.1l36.8,25.8c0.6,0.4,0.8,1.1,0.6,1.7C313.8,745.7,313.3,746.1,312.6,746.1z M255.4,738.9l51.9,3.8
				l-31.4-22L255.4,738.9z"/>
		</g>
		<g>
			<path class="st1" d="M260.7,754.4h-28.6c-0.7,0-1.2-0.4-1.4-1.1c-0.2-0.6,0.1-1.3,0.6-1.7l19.6-12.7c0.3-0.2,0.6-0.3,0.9-0.2
				l18.6,1.4c0.6,0,1.1,0.4,1.3,0.9c0.2,0.5,0.1,1.1-0.2,1.6l-9.7,11.4C261.5,754.2,261.1,754.4,260.7,754.4z M237.2,751.4H260
				l7.3-8.6l-15.2-1.1L237.2,751.4z"/>
		</g>
		<g>
			<path class="st1" d="M275.8,768.7h-10.7c-0.7,0-1.2-0.4-1.4-1.1l-4.5-14.3c-0.2-0.5,0-1,0.3-1.4l9.7-11.4
				c0.3-0.4,0.8-0.6,1.3-0.5l42.3,3.1c0.6,0,1.2,0.5,1.3,1.1c0.2,0.6-0.1,1.3-0.7,1.6l-36.8,22.5
				C276.4,768.6,276.1,768.7,275.8,768.7z M266.2,765.7h9.1l32.5-19.9l-36.9-2.7l-8.6,10.2L266.2,765.7z"/>
		</g>
		<g>
			<path class="st1" d="M135.4,805c-0.2,0-0.4,0-0.5-0.1l-29.6-11.4c-0.5-0.2-0.9-0.7-1-1.2c-0.1-0.5,0.2-1.1,0.6-1.4l25.5-18.2
				c0.2-0.1,0.4-0.2,0.6-0.2l100.8-21c0.1,0,0.2,0,0.3,0h28.6c0.7,0,1.2,0.4,1.4,1.1l4.5,14.3c0.2,0.5,0,1-0.3,1.4l-7.9,9.1
				c-0.2,0.2-0.5,0.4-0.8,0.5l-121.8,27.2C135.6,805,135.5,805,135.4,805z M108.9,791.7l26.6,10.2l120.9-27l7-8.1l-3.9-12.4h-27.3
				l-100.4,20.9L108.9,791.7z"/>
		</g>
		<g>
			<path class="st1" d="M145.7,762.6c-0.3,0-0.6-0.1-0.9-0.3l-7.2-5.2c-0.5-0.3-0.7-0.9-0.6-1.5c0.1-0.6,0.5-1,1.1-1.2l137.3-37.2
				c0.7-0.2,1.5,0.2,1.8,0.9c0.3,0.7,0,1.5-0.6,1.9l-17.9,10.3c-0.1,0.1-0.2,0.1-0.3,0.1l-112.2,32
				C146,762.6,145.9,762.6,145.7,762.6z M141.9,756.6l4.1,2.9l111.3-31.8l7.8-4.5L141.9,756.6z"/>
		</g>
		<g>
			<path class="st1" d="M131.3,775.4c-0.6,0-1.1-0.3-1.3-0.8c-0.3-0.6-0.2-1.3,0.4-1.8l14.5-12.7c0.2-0.1,0.4-0.3,0.6-0.3l112.2-32
				c0.6-0.2,1.2,0,1.6,0.5s0.4,1.1,0.1,1.7l-6.2,11c-0.1,0.2-0.3,0.4-0.5,0.5l-19.6,12.7c-0.2,0.1-0.3,0.2-0.5,0.2l-100.8,21
				C131.5,775.4,131.4,775.4,131.3,775.4z M146.4,762.5l-9.9,8.8l95-19.8l19.1-12.4l4.2-7.5L146.4,762.5z"/>
		</g>
		<g>
			<path class="st1" d="M275.8,784.3c-0.2,0-0.3,0-0.5-0.1l-18.6-6.5c-0.5-0.2-0.8-0.6-1-1c-0.1-0.5,0-1,0.3-1.4l7.9-9.1
				c0.3-0.3,0.7-0.5,1.1-0.5h10.7c0.8,0,1.5,0.7,1.5,1.5v15.7c0,0.5-0.2,0.9-0.6,1.2C276.4,784.2,276.1,784.3,275.8,784.3z
				 M259.8,775.6l14.5,5.1v-12h-8.5L259.8,775.6z"/>
		</g>
		<g>
			<path class="st1" d="M142.6,817c-0.3,0-0.6-0.1-0.8-0.2L105,793.4c-0.7-0.4-0.9-1.3-0.5-1.9c0.3-0.7,1.2-1,1.9-0.7l29.6,11.4
				c0.3,0.1,0.6,0.3,0.7,0.6l7.2,12c0.4,0.6,0.3,1.4-0.2,1.8C143.4,816.9,143,817,142.6,817z M119.2,798.9l18.8,12l-3.7-6.2
				L119.2,798.9z"/>
		</g>
		<g>
			<path class="st1" d="M135.4,805c-0.2,0-0.4,0-0.5-0.1l-29.6-11.4c-0.5-0.2-0.9-0.7-1-1.2c-0.1-0.5,0.2-1.1,0.6-1.4l25.5-18.2
				c0.4-0.3,1-0.4,1.5-0.2c0.5,0.2,0.8,0.7,0.9,1.2l4.1,29.6c0.1,0.5-0.1,1.1-0.6,1.4C136.1,804.9,135.7,805,135.4,805z
				 M108.9,791.7l24.6,9.4l-3.4-24.6L108.9,791.7z"/>
		</g>
	</g>
	<g>
		<g>
			<path class="st1" d="M384.9,438.5c-0.6,0-1.2-0.4-1.4-1l-9.3-24.8c-0.2-0.5-0.1-1,0.2-1.4c14.5-21.9,36.4-55,37.4-56.9
				c0.2-0.5,0.7-0.9,1.3-0.9c0.6,0,1.2,0.3,1.4,0.9l29.9,63.3c0.2,0.5,0.2,1-0.1,1.5l-11,16.2c-0.3,0.4-0.7,0.6-1.2,0.7L384.9,438.5
				C385,438.5,385,438.5,384.9,438.5z M377.3,412.4l8.6,23l45.3-2.3l10.1-14.9L413,358.2C407.9,366.3,391.5,391,377.3,412.4z"/>
		</g>
		<g>
			<path class="st1" d="M451.5,430.6c-0.5,0-0.9-0.2-1.2-0.6l-8.4-10.7c-0.1-0.1-0.1-0.2-0.2-0.3l-29.9-63.3
				c-0.3-0.7-0.1-1.5,0.6-1.9c0.6-0.4,1.5-0.3,2,0.3l44.1,54.7c0.3,0.4,0.4,0.9,0.3,1.4l-5.7,19.3c-0.2,0.5-0.6,0.9-1.2,1
				C451.7,430.6,451.6,430.6,451.5,430.6z M444.4,417.6l6.5,8.3l4.6-15.7l-35.6-44.3L444.4,417.6z"/>
		</g>
		<g>
			<path class="st1" d="M445.5,449.5c-0.4,0-0.8-0.2-1.1-0.4L431,435.7c-0.5-0.5-0.6-1.3-0.2-1.9l11-16.2c0.3-0.4,0.7-0.6,1.2-0.7
				c0.5,0,0.9,0.2,1.2,0.6l8.4,10.7c0.3,0.4,0.4,0.9,0.3,1.4l-6,18.9c-0.2,0.5-0.6,0.9-1.1,1C445.7,449.5,445.6,449.5,445.5,449.5z
				 M434,434.4l10.8,10.8l5-15.8l-6.7-8.4L434,434.4z"/>
		</g>
		<g>
			<path class="st1" d="M375.6,413.7c-0.3,0-0.5-0.1-0.8-0.2l-22-13.1c-0.4-0.2-0.7-0.7-0.7-1.1c0-0.5,0.1-0.9,0.5-1.3l46.5-41.3
				c0.2-0.2,0.4-0.3,0.7-0.3l13.1-2.8c0.6-0.1,1.2,0.1,1.5,0.6c0.3,0.5,0.3,1.2,0,1.7l-37.5,57.1
				C376.6,413.5,376.1,413.7,375.6,413.7z M356.1,398.9l19,11.3l34.7-52.9l-9.1,1.9L356.1,398.9z"/>
		</g>
		<g>
			<path class="st1" d="M384.9,537.3c-0.4,0-0.8-0.2-1.1-0.5l-31.3-36.1c-0.2-0.3-0.4-0.6-0.4-1V399.2c0-0.5,0.3-1,0.8-1.3
				c0.5-0.3,1-0.3,1.5,0l22,13.1c0.3,0.2,0.5,0.4,0.6,0.8l9.3,24.8c0.1,0.2,0.1,0.3,0.1,0.5v98.8c0,0.6-0.4,1.2-1,1.4
				C385.3,537.3,385.1,537.3,384.9,537.3z M355.1,499.1l28.3,32.7v-94.5l-9-24l-19.3-11.5V499.1z"/>
		</g>
		<g>
			<path class="st1" d="M439,540.7C438.9,540.7,438.9,540.7,439,540.7l-54.1-3.4c-0.8-0.1-1.4-0.7-1.4-1.5V437
				c0-0.8,0.6-1.5,1.4-1.5l47.2-2.4c0.4,0,0.8,0.1,1.1,0.4l13.4,13.4c0.3,0.3,0.5,0.7,0.4,1.2l-6.5,91.2
				C440.4,540.1,439.8,540.7,439,540.7z M386.4,534.4l51.1,3.3l6.4-89l-12.5-12.5l-45.1,2.3V534.4z"/>
		</g>
		<g>
			<path class="st1" d="M439,540.7c-0.2,0-0.5-0.1-0.7-0.2c-0.5-0.3-0.9-0.8-0.8-1.5l6.5-91.2c0-0.1,0-0.2,0.1-0.3l6-18.9l5.7-19.2
				c0.2-0.7,0.9-1.2,1.7-1.1c0.7,0.1,1.3,0.7,1.3,1.5v113.2c0,0.4-0.2,0.8-0.5,1.1L440,540.4C439.7,540.6,439.3,540.7,439,540.7z
				 M447,448.3l-6.3,87.4l15-13.3V420.2l-2.7,9.3L447,448.3z"/>
		</g>
		<g>
			<path class="st1" d="M404.9,582.1c-0.1,0-0.1,0-0.2,0c-0.5-0.1-1-0.4-1.2-0.9l-20-44.7c-0.2-0.5-0.2-1,0.1-1.5
				c0.3-0.4,0.8-0.7,1.3-0.6l54,3.4c0.6,0,1.1,0.4,1.3,0.9c0.2,0.5,0.1,1.1-0.2,1.5l-34.1,41.3C405.8,581.9,405.3,582.1,404.9,582.1
				z M387.3,537.5l18,40.3l30.7-37.2L387.3,537.5z"/>
		</g>
		<g>
			<path class="st1" d="M404.9,582.1c-0.3,0-0.7-0.1-1-0.4c-0.6-0.5-0.7-1.5-0.2-2.1l34.1-41.3c0-0.1,0.1-0.1,0.2-0.2l18.2-16.2
				c0.6-0.5,1.5-0.5,2.1,0.1c0.6,0.6,0.6,1.5,0,2.1L406,581.6C405.7,581.9,405.3,582.1,404.9,582.1z"/>
		</g>
		<g>
			<path class="st1" d="M404.9,582.1c-0.5,0-1-0.2-1.3-0.7l-51.3-80.9c-0.4-0.7-0.3-1.5,0.4-2c0.6-0.5,1.5-0.4,2,0.2l31.3,36.1
				c0.1,0.1,0.2,0.2,0.2,0.4l20,44.7c0.3,0.7,0,1.6-0.7,1.9C405.4,582,405.1,582.1,404.9,582.1z M365.6,515.8l29.5,46.5l-11.5-25.7
				L365.6,515.8z"/>
		</g>
	</g>
	<g>
		<g>
			<path class="st1" d="M450.1,690.9c-0.3,0-0.5-0.1-0.7-0.2l-24.7-13.8c-0.6-0.3-0.9-1.1-0.7-1.7l5.5-18.4c0.2-0.6,0.7-1,1.3-1.1
				l39.5-3.7c0.4,0,0.8,0.1,1.1,0.4l15.4,13.8c0.6,0.5,0.7,1.4,0.2,2L476.5,682c-0.2,0.2-0.4,0.4-0.7,0.5l-25.1,8.3
				C450.5,690.9,450.3,690.9,450.1,690.9z M427.2,674.9l23.1,12.9l24.1-7.9l9.5-12.3l-13.9-12.4l-37.9,3.5L427.2,674.9z"/>
		</g>
		<g>
			<path class="st1" d="M468.2,882.2h-19.8c-0.2,0-0.5-0.1-0.7-0.2l-21.1-11c-0.5-0.3-0.8-0.8-0.8-1.3l-1.9-194.1
				c0-0.5,0.3-1,0.7-1.3c0.5-0.3,1-0.3,1.5,0l24.1,13.4l24.1-7.9l10.3-13.4c0.4-0.5,1.1-0.7,1.7-0.5c0.6,0.2,1,0.8,1,1.4L483,869.3
				c0,0.4-0.2,0.8-0.5,1.1l-13.3,11.5C468.9,882.1,468.5,882.2,468.2,882.2z M448.8,879.2h18.8l12.4-10.7l4.3-196.7l-7.8,10.1
				c-0.2,0.2-0.4,0.4-0.7,0.5l-25.1,8.3c-0.4,0.1-0.8,0.1-1.2-0.1L427,678.2l1.8,190.6L448.8,879.2z"/>
		</g>
		<g>
			
				<rect x="418.2" y="848.7" transform="matrix(9.114205e-03 -1 1 9.114205e-03 -405.6049 1291.1313)" class="st1" width="61" height="3"/>
		</g>
		<g>
			
				<rect x="415.5" y="777.7" transform="matrix(9.114205e-03 -1 1 9.114205e-03 -333.955 1221.4128)" class="st1" width="67.7" height="3"/>
		</g>
		<g>
			
				<rect x="425.5" y="712.3" transform="matrix(9.114205e-03 -1 1 9.114205e-03 -267.9319 1157.1694)" class="st1" width="48.8" height="3"/>
		</g>
		<g>
			
				<rect x="449.8" y="860.2" transform="matrix(3.580764e-02 -0.9994 0.9994 3.580764e-02 -409.1002 1299.3685)" class="st1" width="38.1" height="3"/>
		</g>
		<g>
			
				<rect x="395.4" y="756.7" transform="matrix(3.580764e-02 -0.9994 0.9994 3.580764e-02 -302.0997 1203.2501)" class="st1" width="154.2" height="3"/>
		</g>
		<g>
			
				<rect x="435.7" y="795.3" transform="matrix(0.9999 -1.236845e-02 1.236845e-02 0.9999 -10.2974 5.4716)" class="st1" width="3" height="79.8"/>
		</g>
		<g>
			
				<rect x="434.9" y="754.1" transform="matrix(0.9999 -1.236247e-02 1.236247e-02 0.9999 -9.5116 5.4544)" class="st1" width="3" height="36"/>
		</g>
		<g>
			
				<rect x="434.2" y="681.1" transform="matrix(0.9999 -1.236153e-02 1.236153e-02 0.9999 -8.7835 5.4405)" class="st1" width="3" height="64.3"/>
		</g>
		<g>
			<rect x="441.1" y="783" class="st1" width="3" height="94.7"/>
		</g>
		<g>
			<rect x="441.1" y="718.7" class="st1" width="3" height="55.3"/>
		</g>
		<g>
			<rect x="441.1" y="685.2" class="st1" width="3" height="25.3"/>
		</g>
		<g>
			
				<rect x="448.1" y="864" transform="matrix(1.627389e-02 -0.9999 0.9999 1.627389e-02 -409.5581 1314.6903)" class="st1" width="30.5" height="3"/>
		</g>
		<g>
			
				<rect x="421.3" y="800.3" transform="matrix(1.627389e-02 -0.9999 0.9999 1.627389e-02 -344.8679 1253.0903)" class="st1" width="86.3" height="3"/>
		</g>
		<g>
			
				<rect x="454.1" y="736.7" transform="matrix(1.627389e-02 -0.9999 0.9999 1.627389e-02 -280.2245 1191.5356)" class="st1" width="22.6" height="3"/>
		</g>
		<g>
			
				<rect x="448.7" y="699.9" transform="matrix(1.627389e-02 -0.9999 0.9999 1.627389e-02 -242.8596 1155.9562)" class="st1" width="34.7" height="3"/>
		</g>
		<g>
			<path class="st1" d="M412.6,730.3c-0.2,0-0.4,0-0.5-0.1l-12.5-4.6c-0.2-0.1-0.3-0.2-0.5-0.3l-10.3-8.7c-0.4-0.3-0.6-0.8-0.5-1.3
				c0-0.5,0.3-0.9,0.7-1.2l14.5-8.3c0.6-0.4,1.4-0.2,1.9,0.3l4,4.6l12-7.2c0.7-0.4,1.5-0.2,2,0.4l3.5,4.6c0.2,0.3,0.3,0.6,0.3,0.9
				l-0.3,14.7c0,0.6-0.4,1.2-1,1.4l-12.8,4.6C413,730.3,412.8,730.3,412.6,730.3z M400.9,722.9l11.7,4.3l11.3-4.1l0.3-13.1l-2.4-3.1
				l-11.9,7.1c-0.6,0.4-1.4,0.2-1.9-0.3l-4-4.6l-11.5,6.6L400.9,722.9z"/>
		</g>
		<g>
			<path class="st1" d="M412.6,876.7c-0.3,0-0.7-0.1-0.9-0.3l-13.1-10.5c-0.3-0.3-0.5-0.7-0.6-1.1l-9.6-149.1c0-0.6,0.3-1.2,0.8-1.4
				c0.5-0.3,1.2-0.2,1.6,0.2l10,8.5l11.7,4.3l12.3-4.4c0.5-0.2,1-0.1,1.4,0.2s0.6,0.7,0.6,1.2l1.9,145.5c0,0.6-0.4,1.2-1,1.4
				l-14.7,5.4C413,876.6,412.8,876.7,412.6,876.7z M401,863.9l11.9,9.5l12.9-4.8L424,726.4l-10.8,3.9c-0.3,0.1-0.7,0.1-1,0
				l-12.5-4.6c-0.2-0.1-0.3-0.2-0.5-0.3l-7.6-6.4L401,863.9z"/>
		</g>
		<g>
			<rect x="411.1" y="728.8" class="st1" width="3" height="41.3"/>
		</g>
		<g>
			<path class="st1" d="M412.6,876.7c-0.8,0-1.4-0.6-1.5-1.4l-7.4-89.9l3-0.2l4.4,53.6v-62.2h3v98.6
				C414.1,876,413.5,876.6,412.6,876.7C412.7,876.7,412.6,876.7,412.6,876.7z"/>
		</g>
		<g>
			
				<rect x="400.9" y="724.2" transform="matrix(0.9966 -8.232260e-02 8.232260e-02 0.9966 -60.5175 35.6802)" class="st1" width="3" height="55.1"/>
		</g>
		<g>
			<path class="st1" d="M496.4,762.9h-12.6c-0.4,0-0.8-0.2-1.1-0.5c-0.3-0.3-0.4-0.7-0.4-1.1l0.3-16.1c0-0.8,0.7-1.5,1.5-1.5h12.3
				c0.4,0,0.8,0.2,1.1,0.5l8.4,8.7c0.3,0.3,0.4,0.7,0.4,1.1c0,0.4-0.2,0.8-0.5,1.1l-8.4,7.3C497.1,762.8,496.8,762.9,496.4,762.9z
				 M485.3,759.9h10.5l6.8-5.9l-6.9-7.1h-10.2L485.3,759.9z"/>
		</g>
		<g>
			<path class="st1" d="M490.1,876.7c-0.3,0-0.6-0.1-0.8-0.3l-8.6-5.9c-0.4-0.3-0.7-0.8-0.7-1.3l2.3-107.8c0-0.8,0.7-1.5,1.5-1.5
				h12.6c0.4,0,0.8,0.2,1.1,0.5s0.4,0.7,0.4,1.1l-4,71.1l-3-0.2l3.9-69.5h-9.6L483,868.5l5.7,3.9l1.9-33.1l3,0.2l-2,35.7
				c0,0.5-0.3,1-0.8,1.3C490.5,876.6,490.3,876.7,490.1,876.7z"/>
		</g>
		<g>
			<path class="st1" d="M490.8,876.4l-1.5-2.6l7.6-4.6l6.5-115.3l3,0.2l-6.5,116.1c0,0.5-0.3,0.9-0.7,1.2L490.8,876.4z"/>
		</g>
		<g>
			<rect x="416.6" y="726.9" class="st1" width="3" height="146.3"/>
		</g>
	</g>
	<g>
		<g>
			<path class="st1" d="M1012.7,436.1C1012.7,436.1,1012.7,436.1,1012.7,436.1l-42.4-2.8c-0.6,0-1.1-0.4-1.3-1l-14.7-43.7
				c-0.2-0.5,0-1.1,0.3-1.5l29.4-30.6c0.6-0.6,1.5-0.6,2.1,0l36.7,34.9c0.3,0.3,0.5,0.7,0.5,1.1v23.9c0,0.2-0.1,0.5-0.2,0.7
				l-9.2,18.4C1013.8,435.7,1013.3,436.1,1012.7,436.1z M971.6,430.4l40.3,2.6l8.6-17.1V393l-35.2-33.4l-27.8,28.9L971.6,430.4z"/>
		</g>
		<g>
			<path class="st1" d="M965.5,549.4c-0.4,0-0.8-0.2-1.1-0.5L952,536.1c-0.3-0.3-0.4-0.7-0.4-1.1l2.7-147c0-0.7,0.5-1.3,1.3-1.5
				c0.7-0.1,1.4,0.3,1.7,1l14.7,43.7c0.1,0.2,0.1,0.3,0.1,0.5v99.1c0,0.1,0,0.3-0.1,0.4l-5,17c-0.2,0.5-0.6,0.9-1.1,1
				C965.7,549.4,965.6,549.4,965.5,549.4z M954.6,534.5l10.2,10.5l4.2-14.3V432l-11.9-35.3L954.6,534.5z"/>
		</g>
		<g>
			<path class="st1" d="M1008.1,579.7c-0.3,0-0.6-0.1-0.9-0.3l-42.7-30.3c-0.5-0.4-0.8-1-0.6-1.6l4.9-16.8v-98.9
				c0-0.4,0.2-0.8,0.5-1.1c0.3-0.3,0.7-0.4,1.1-0.4l41.3,2.7l8.6-17.1v-23.5c0-0.6,0.4-1.2,1-1.4c0.6-0.2,1.3,0,1.7,0.5l25.2,33
				c0.2,0.2,0.3,0.5,0.3,0.8l8.7,101c0,0.3-0.1,0.7-0.2,0.9l-13.8,21.6l-11,17c-0.1,0.2-0.3,0.4-0.5,0.5l-22.9,13.3
				C1008.7,579.6,1008.4,579.7,1008.1,579.7z M967.2,547.3l41,29.1l21.8-12.6l10.8-16.7l13.5-21.1l-8.6-100l-22.3-29.2v19.4
				c0,0.2-0.1,0.5-0.2,0.7l-9.2,18.4c-0.3,0.5-0.8,0.9-1.4,0.8l-40.7-2.6v97.5c0,0.1,0,0.3-0.1,0.4L967.2,547.3z"/>
		</g>
		<g>
			<path class="st1" d="M1042.1,549.4h-11.5c-0.4,0-0.7-0.1-1-0.4l-20-17c-0.3-0.3-0.5-0.7-0.5-1.2l2.1-96.4c0-0.2,0.1-0.4,0.2-0.6
				l9.2-18.4c0.1-0.3,0.3-0.5,0.6-0.6l12.5-7.5c0.7-0.4,1.5-0.2,2,0.4l12.7,16.6c0.2,0.2,0.3,0.5,0.3,0.8l8.7,101
				c0,0.3-0.1,0.7-0.2,0.9l-13.8,21.6C1043.1,549.1,1042.6,549.4,1042.1,549.4z M1031.2,546.4h10.1l13.1-20.4l-8.6-100l-11.6-15.2
				l-11,6.5l-8.8,17.7l-2,95.3L1031.2,546.4z"/>
		</g>
		<g>
			<path class="st1" d="M1031.1,566.4c-0.2,0-0.5-0.1-0.7-0.2l-8.8-4.9h-10.9c-0.6,0-1.2-0.4-1.4-1l-2.5-6.4l-7.4-15.6h-8.8
				c-0.1,0-0.3,0-0.4-0.1l-20.1-6c-0.7-0.2-1.2-0.9-1.1-1.7s0.7-1.3,1.5-1.3h40.2v3h-29.9l10,3h9.6c0.6,0,1.1,0.3,1.4,0.9l7.8,16.5
				c0,0,0,0.1,0,0.1l2.1,5.5h10.2c0.3,0,0.5,0.1,0.7,0.2l6.9,3.8l-0.4-14.4c0-0.5,0.3-1,0.7-1.3l9.6-6l1.6,2.6l-8.9,5.5l0.4,16.1
				c0,0.5-0.3,1-0.7,1.3C1031.6,566.3,1031.4,566.4,1031.1,566.4z"/>
		</g>
		<g>
			<path class="st1" d="M1040.3,543.4C1040.3,543.4,1040.2,543.4,1040.3,543.4c-0.5,0-1-0.3-1.2-0.7l-15.6-23.4
				c-0.2-0.3-0.3-0.6-0.3-0.9l3.1-105.8c0-0.5,0.3-1,0.7-1.2l6.7-4c0.7-0.4,1.5-0.2,2,0.4l12.7,16.6c0.2,0.2,0.3,0.5,0.3,0.8
				l8.3,96.4c0,0.4-0.1,0.7-0.3,1l-15.2,20.2C1041.2,543.2,1040.7,543.4,1040.3,543.4z M1026.2,518.1l14.2,21.2l13.6-18l-8.2-95.4
				l-11.6-15.2l-4.9,2.9L1026.2,518.1z"/>
		</g>
		<g>
			<path class="st1" d="M970.8,519.1l-0.6-2.9l13.5-3v-78.6h3v79.9c0,0.7-0.5,1.3-1.2,1.5L970.8,519.1z"/>
		</g>
		<g>
			
				<rect x="992.4" y="510.7" transform="matrix(0.6878 -0.7259 0.7259 0.6878 -69.0867 884.7165)" class="st1" width="3" height="24"/>
		</g>
		<g>
			<path class="st1" d="M1025.3,519.9l-1.3-2.7l7.8-3.7l1.2-104.7l3,0l-1.2,105.7c0,0.6-0.3,1.1-0.9,1.3L1025.3,519.9z"/>
		</g>
		<g>
			<rect x="957" y="396.4" class="st1" width="3" height="145.6"/>
		</g>
	</g>
	<g>
		<g>
			<path class="st1" d="M655,473.3c-0.4,0-0.8-0.2-1.1-0.5l-31.7-33.6c-0.1-0.1-0.1-0.1-0.2-0.2L597.3,400c-0.1-0.1-0.1-0.2-0.2-0.4
				l-8.9-30.5c0,0,0-0.1,0-0.1l-12.4-62c-0.1-0.6,0.2-1.3,0.8-1.6c0.6-0.3,1.3-0.2,1.8,0.3l43.7,43.4c0.1,0.1,0.1,0.2,0.2,0.2l32,49
				c0.1,0.2,0.2,0.3,0.2,0.5l11.7,55.6c0.1,0.4,0,0.7-0.2,1l-9.6,17c-0.2,0.4-0.7,0.7-1.1,0.8C655.1,473.3,655.1,473.3,655,473.3z
				 M624.5,437.3l30.2,32l8.4-14.8l-11.5-54.8l-31.8-48.7l-40.1-39.8l11.4,57.1l8.9,30.2L624.5,437.3z"/>
		</g>
		<g>
			<path class="st1" d="M600.6,630.4c-0.3,0-0.7-0.1-1-0.4l-52.3-44.7c-0.3-0.3-0.5-0.7-0.5-1.1l-9.6-204.4c0-0.1,0-0.2,0-0.3
				l6.2-42c0-0.3,0.2-0.6,0.4-0.9l32.4-31c0.4-0.4,1-0.5,1.5-0.3c0.5,0.2,0.9,0.6,1,1.1l12.4,61.9l8.9,30.2l24.6,38.8l30.2,32
				l8.6-15.3c0.3-0.6,1-0.9,1.6-0.7c0.6,0.1,1.1,0.7,1.2,1.4l6.9,98.1c0,0.4-0.1,0.8-0.4,1.1l-70.9,76.1
				C601.4,630.2,601,630.4,600.6,630.4z M549.8,583.4l50.7,43.4l69.5-74.5l-6.5-92.5l-7.2,12.7c-0.2,0.4-0.7,0.7-1.1,0.8
				c-0.5,0.1-0.9-0.1-1.3-0.5l-31.7-33.6c-0.1-0.1-0.1-0.1-0.2-0.2L597.3,400c-0.1-0.1-0.1-0.2-0.2-0.4l-8.9-30.5c0,0,0-0.1,0-0.1
				l-11.9-59.3l-30,28.7l-6.1,41.3L549.8,583.4z"/>
		</g>
		<g>
			<path class="st1" d="M548.3,381.2c-0.2,0-0.4,0-0.5-0.1l-9.1-3.5c-0.7-0.3-1.1-0.9-1-1.6l5.7-38.5c0-0.3,0.2-0.6,0.4-0.9l32.4-31
				c0.5-0.5,1.3-0.6,1.8-0.2c0.6,0.4,0.8,1.1,0.6,1.8l-18.6,54c0,0.1-0.1,0.2-0.1,0.2l-10.3,18.9
				C549.4,380.9,548.8,381.2,548.3,381.2z M540.8,375.3l6.8,2.6l9.6-17.7l16.5-48.1l-27.5,26.3L540.8,375.3z"/>
		</g>
		<g>
			<path class="st1" d="M600.6,630.4c-0.3,0-0.7-0.1-1-0.4l-52.3-44.7c-0.6-0.5-0.7-1.3-0.3-1.9c0.4-0.6,1.2-0.9,1.8-0.6L572,592
				h14.4l-20.2-38.4c0-0.1-0.1-0.1-0.1-0.2c-12.1-33.4-9.7-141.3-9.5-149.3l-9.8-23.8l2.8-1.1l9.9,24.1c0.1,0.2,0.1,0.4,0.1,0.6
				c0,1.1-2.9,114.9,9.3,148.4l20.6,39.2l81.3-40l1.3,2.7l-81.4,40l11.3,34.2c0.2,0.6,0,1.3-0.6,1.7
				C601.2,630.3,600.9,630.4,600.6,630.4z M556.1,588.9l41.4,35.4l-9.7-29.3h-16.1c-0.2,0-0.4,0-0.6-0.1L556.1,588.9z"/>
		</g>
		<g>
			<path class="st1" d="M600.6,630.4c-0.5,0-0.9-0.2-1.2-0.6l-28.9-35.5c-0.2-0.2-0.3-0.5-0.3-0.8l-5.7-45.6l3-0.4l5.6,45.2
				l27.5,33.7l52.9-66.1v-88.7h3V561c0,0.3-0.1,0.7-0.3,0.9l-54.4,67.9C601.5,630.2,601.1,630.4,600.6,630.4
				C600.6,630.4,600.6,630.4,600.6,630.4z"/>
		</g>
		<g>
			<path class="st1" d="M559.5,404.5l-2.6-1.4l7.8-14.5c0.3-0.6,1.1-0.9,1.8-0.7l32.5,9.9l-0.9,2.9l-31.4-9.5L559.5,404.5z"/>
		</g>
		<g>
			<path class="st1" d="M564.6,389.8l-9.6-24.4c-0.2-0.5-0.1-1,0.2-1.5c0.3-0.4,0.8-0.6,1.4-0.6l33.2,3.8l-0.3,3l-30.7-3.5l8.7,22
				L564.6,389.8z"/>
		</g>
	</g>
	<g>
		<g>
			<path class="st1" d="M1105.6,263.9c-0.2,0-0.4,0-0.6-0.1l-66.8-29.9c-0.5-0.2-0.8-0.7-0.9-1.2c-0.1-0.5,0.1-1,0.5-1.4l66.8-55.1
				c0.2-0.2,0.5-0.3,0.8-0.3l121.2-11.7c0.3,0,0.6,0,0.9,0.2l66.8,36.5c0.4,0.2,0.7,0.7,0.8,1.2c0.1,0.5-0.1,1-0.5,1.3l-47.5,40.6
				c-0.2,0.2-0.5,0.3-0.8,0.3l-140.4,19.6C1105.8,263.9,1105.7,263.9,1105.6,263.9z M1041.7,232.1l64.2,28.8l139.6-19.5l45.5-38.9
				l-64.5-35.2l-120.2,11.6L1041.7,232.1z"/>
		</g>
		<g>
			<path class="st1" d="M1105.6,263.9c-0.2,0-0.4,0-0.6-0.1l-66.8-29.9c-0.5-0.2-0.9-0.8-0.9-1.4s0.3-1.1,0.9-1.4l50.3-22.4
				c0.1-0.1,0.3-0.1,0.4-0.1L1186,197c0.5-0.1,0.9,0.1,1.3,0.4l4.2,4.3l14-4.6l22.5-17.6c0.4-0.3,0.9-0.4,1.4-0.2l64.7,21.3
				c0.5,0.2,0.9,0.6,1,1.1c0.1,0.5-0.1,1.1-0.5,1.4l-47.5,40.6c-0.2,0.2-0.5,0.3-0.8,0.3l-140.4,19.6
				C1105.8,263.9,1105.7,263.9,1105.6,263.9z M1042.5,232.4l63.3,28.4l139.6-19.5l45.1-38.6l-61.4-20.3l-22.1,17.2
				c-0.1,0.1-0.3,0.2-0.5,0.2l-15.1,5c-0.5,0.2-1.1,0-1.5-0.4l-4.3-4.5l-96.1,11.4L1042.5,232.4z"/>
		</g>
		<g>
			<path class="st1" d="M1085.7,244.3c-0.4,0-0.8-0.2-1.1-0.4c-0.3-0.3-0.5-0.8-0.4-1.2l3.4-32.7c0.1-0.7,0.6-1.2,1.3-1.3L1186,197
				c0.5-0.1,0.9,0.1,1.3,0.4l4.2,4.3l14.2-4.7c0.4-0.1,0.9-0.1,1.3,0.2c0.4,0.3,0.6,0.7,0.7,1.1l2.1,27.2c0,0.4-0.1,0.9-0.4,1.2
				l-6.9,6.7c-0.2,0.2-0.6,0.4-0.9,0.4l-115.6,10.3C1085.7,244.3,1085.7,244.3,1085.7,244.3z M1090.5,211.4l-3.1,29.7l113.3-10.1
				l6-5.9l-1.9-24.6l-13.3,4.4c-0.5,0.2-1.1,0-1.5-0.4l-4.3-4.5L1090.5,211.4z"/>
		</g>
		<g>
			<path class="st1" d="M1227.5,244.3c-0.2,0-0.4,0-0.6-0.1l-26.2-10.3l1.1-2.8l25.3,10l10.3-9.7c0.1-0.1,0.2-0.2,0.3-0.2l55.1-30.3
				l1.4,2.6l-54.9,30.2l-10.9,10.2C1228.2,244.1,1227.8,244.3,1227.5,244.3z"/>
		</g>
		<g>
			
				<rect x="1221.8" y="213.6" transform="matrix(0.2164 -0.9763 0.9763 0.2164 735.0105 1373.8699)" class="st1" width="3" height="31"/>
		</g>
		<g>
			<path class="st1" d="M1105.6,263.9c-0.4,0-0.8-0.2-1.1-0.4l-20-19.6c-0.5-0.5-0.6-1.4-0.1-2c0.5-0.6,1.3-0.8,1.9-0.4l31.7,18
				c0.6,0.3,0.9,1,0.7,1.6c-0.1,0.6-0.6,1.1-1.3,1.2l-11.7,1.6C1105.8,263.9,1105.7,263.9,1105.6,263.9z M1094.9,249.7l11.3,11.1
				l6.6-0.9L1094.9,249.7z"/>
		</g>
		<g>
			<path class="st1" d="M1085.3,244.2l-46.8-10.3c-0.6-0.1-1-0.6-1.2-1.2c-0.1-0.6,0.2-1.2,0.7-1.5l58.5-37.9
				c0.2-0.1,0.3-0.2,0.5-0.2l115-22c0.3-0.1,0.7,0,1,0.1l16.5,8.3l-1.3,2.7l-16.1-8L1097.9,196l-55.3,35.8l43.3,9.6L1085.3,244.2z"
				/>
		</g>
		<g>
			<path class="st1" d="M1089.1,211.6c-0.5,0-0.9-0.2-1.2-0.6c-0.3-0.5-0.4-1.1-0.1-1.6l8.3-15.5l8.2-17.2l2.7,1.3l-8.3,17.2
				l-6.8,12.8l101.8-18.3l17.6-18.2c0.1-0.1,0.3-0.2,0.4-0.3l14.5-6.9l1.3,2.7l-14.2,6.8l-17.7,18.4c-0.2,0.2-0.5,0.4-0.8,0.4
				l-105.3,18.9C1089.3,211.5,1089.2,211.6,1089.1,211.6z"/>
		</g>
		<g>
			<path class="st1" d="M1205.3,199.8l-10.7-6.8l-7.4,6.6l-2-2.2l8.3-7.4c0.5-0.4,1.2-0.5,1.8-0.2l11.7,7.4L1205.3,199.8z"/>
		</g>
		<g>
			
				<rect x="1089" y="205.3" transform="matrix(0.998 -6.379671e-02 6.379671e-02 0.998 -10.87 73.1519)" class="st1" width="102.1" height="3"/>
		</g>
	</g>
	<g>
		<g>
			<path class="st1" d="M228.8,251.6h-17c-0.2,0-0.5-0.1-0.7-0.2l-64-33c-0.3-0.2-0.6-0.5-0.7-0.9l-20.7-62
				c-0.2-0.7,0.1-1.5,0.8-1.8l55.1-26.2c0.4-0.2,0.8-0.2,1.2-0.1l70.2,26.2c0.4,0.1,0.7,0.5,0.9,0.8l18.9,46.8c0,0,0,0.1,0,0.1
				l8.6,29.6c0.2,0.8-0.2,1.6-0.9,1.8l-51.2,18.6C229.2,251.6,229,251.6,228.8,251.6z M212.2,248.6h16.4l49.6-18l-8.2-28.2
				l-18.7-46.1l-69-25.7L129,155.9l20,60.1L212.2,248.6z"/>
		</g>
		<g>
			<path class="st1" d="M147.9,218.6l-0.2-3l33.6-2.7l20.6-34.5l-21-48.9l2.8-1.2l21.3,49.6c0.2,0.4,0.2,0.9-0.1,1.4l-21.3,35.8
				c-0.2,0.4-0.7,0.7-1.2,0.7L147.9,218.6z"/>
		</g>
		<g>
			<path class="st1" d="M260.5,195.8l-37.1-10.2l5.9,2.6l-1.2,2.8l-25.3-11c-0.7-0.3-1.1-1.1-0.8-1.9c0.3-0.7,1.1-1.2,1.8-0.9
				l57.4,15.8L260.5,195.8z"/>
		</g>
		<g>
			<path class="st1" d="M228.8,251.6c-0.2,0-0.5-0.1-0.7-0.2L165,217c-0.2-0.1-0.4-0.3-0.5-0.5L125.9,156c-0.3-0.5-0.3-1.1,0-1.6
				c0.3-0.5,0.9-0.7,1.5-0.6l71.6,12.2c0,0,0.1,0,0.1,0l22,5.7c0.4,0.1,0.8,0.4,1,0.8l7.8,16l29.1,11.8l-8-44.8l3-0.5l8.5,47.2
				l18.9,28.7l-2.5,1.6l-17.4-26.5l-10.9,28.9c-0.1,0.3-0.3,0.5-0.5,0.7l-20.2,15.8C229.5,251.5,229.1,251.6,228.8,251.6z
				 M166.7,214.5l61.9,33.8l19.1-15l11.3-29.9L228.2,191c-0.3-0.1-0.6-0.4-0.8-0.7l-7.7-15.9l-21.3-5.5l-68.2-11.6L166.7,214.5z"/>
		</g>
		<g>
			
				<rect x="208.5" y="197.4" transform="matrix(0.4589 -0.8885 0.8885 0.4589 -89.5691 310.3535)" class="st1" width="3" height="62.6"/>
		</g>
		<g>
			<path class="st1" d="M249.1,235.8l-0.3-3l27.9-2.5l-19.2-20.5l2.2-2.1l21.3,22.8c0.4,0.4,0.5,1,0.3,1.6s-0.7,0.9-1.3,1
				L249.1,235.8z"/>
		</g>
		<g>
			<path class="st1" d="M170.8,230.1l-1-2.8l11.9-4c0,0,0.1,0,0.1,0l13.9-3.1l0.7,2.9l-13.9,3.1L170.8,230.1z"/>
		</g>
	</g>
	<g>
		<g>
			<path class="st1" d="M232.3,558.7h-74.1c-0.4,0-0.9-0.2-1.1-0.5l-24.8-29.4c-0.2-0.3-0.4-0.6-0.4-1v-93.2c0-0.5,0.2-0.9,0.6-1.2
				l68.8-56.2c0.5-0.4,1.2-0.5,1.8-0.1l31,21.2c0.1,0.1,0.3,0.2,0.4,0.4l44.7,63.5c0.2,0.3,0.3,0.6,0.3,0.9v66.8
				c0,0.5-0.3,1-0.7,1.3l-45.7,27.4C232.9,558.7,232.6,558.7,232.3,558.7z M158.9,555.7h73l44.6-26.7v-65.4l-44.3-62.9l-29.8-20.4
				l-67.4,55v91.9L158.9,555.7z"/>
		</g>
		<g>
			<path class="st1" d="M161,472.9c-0.5,0-0.9-0.2-1.2-0.6l-27.5-36.7c-0.5-0.6-0.4-1.6,0.3-2.1l68.8-56.2c0.5-0.4,1.2-0.5,1.7-0.1
				c0.5,0.3,0.8,1,0.7,1.6l-3.4,17.2c0,0.1-0.1,0.3-0.1,0.4L162.3,472c-0.2,0.5-0.7,0.8-1.2,0.8C161.1,472.8,161,472.9,161,472.9z
				 M135.5,434.9l25.2,33.6l36.7-73.4l2.6-12.9L135.5,434.9z"/>
		</g>
		<g>
			<path class="st1" d="M232.3,558.7h-74.1c-0.4,0-0.8-0.2-1.1-0.5c-0.3-0.3-0.4-0.7-0.4-1.1l2.8-85.9c0-0.2,0.1-0.4,0.2-0.6
				l9.6-19.3c0.3-0.5,0.8-0.8,1.3-0.8h45.4c0.4,0,0.8,0.2,1.1,0.4l23.4,23.1c0.3,0.3,0.4,0.7,0.4,1.1v66.4c0,0.2,0,0.4-0.1,0.6
				l-7.1,15.7C233.5,558.4,232.9,558.7,232.3,558.7z M159.8,555.7h71.6l6.6-14.5v-65.5l-22.5-22.2h-43.9l-9.1,18.2L159.8,555.7z"/>
		</g>
		<g>
			<path class="st1" d="M216.1,453.6h-45.4c-0.5,0-1-0.3-1.3-0.7s-0.3-1-0.1-1.5l28.2-56.4c0.3-0.5,0.9-0.9,1.5-0.8
				c0.6,0.1,1.1,0.5,1.3,1.1l17.2,56.4c0.1,0.5,0.1,0.9-0.2,1.3C217,453.4,216.5,453.6,216.1,453.6z M173,450.6h41l-15.5-50.9
				L173,450.6z"/>
		</g>
		<g>
			<path class="st1" d="M239.5,543.1c-0.3,0-0.6-0.1-0.9-0.3c-0.4-0.3-0.6-0.7-0.6-1.2v-66.4c0-0.6,0.3-1.1,0.8-1.3l34.1-18.3
				c0.7-0.4,1.5-0.2,1.9,0.5l4.4,6.3c0.2,0.3,0.3,0.6,0.3,0.9v66.8c0,0.7-0.4,1.2-1.1,1.4L239.9,543
				C239.8,543,239.6,543.1,239.5,543.1z M241,476v63.5l35.5-10.8v-65.2l-3.4-4.8L241,476z"/>
		</g>
		<g>
			
				<rect x="144.3" y="520.5" transform="matrix(0.4857 -0.8741 0.8741 0.4857 -392.38 402.4887)" class="st1" width="3" height="28.3"/>
		</g>
		<g>
			<path class="st1" d="M238.2,539c-22.8-33.1-57.8-83.2-60.8-85.6c0,0,0.3,0.2,0.7,0.2v-3c1.2,0,2.1,0,32.6,43.7
				c14.9,21.3,29.7,42.8,29.9,43L238.2,539z"/>
		</g>
		<g>
			
				<rect x="211.1" y="443.5" transform="matrix(0.8157 -0.5784 0.5784 0.8157 -244.2182 213.2621)" class="st1" width="3" height="92.8"/>
		</g>
		<g>
			
				<rect x="132.2" y="437.3" transform="matrix(9.114205e-03 -1 1 9.114205e-03 -289.8826 585.0376)" class="st1" width="36.1" height="3"/>
		</g>
		<g>
			
				<rect x="162.2" y="411.1" transform="matrix(0.9985 -5.545755e-02 5.545755e-02 0.9985 -23.9889 9.7494)" class="st1" width="3" height="52.1"/>
		</g>
		<g>
			
				<rect x="187.3" y="424.1" transform="matrix(0.9481 -0.318 0.318 0.9481 -129.6473 82.8006)" class="st1" width="3" height="28.7"/>
		</g>
		<g>
			
				<rect x="192.8" y="418.8" transform="matrix(0.8905 -0.455 0.455 0.8905 -177.3027 136.2012)" class="st1" width="3" height="35.2"/>
		</g>
		<g>
			
				<rect x="257.2" y="478.9" transform="matrix(0.6874 -0.7263 0.7263 0.6874 -286.2039 345.9186)" class="st1" width="3" height="53.1"/>
		</g>
		<g>
			
				<rect x="253.2" y="501.5" transform="matrix(0.6509 -0.7592 0.7592 0.6509 -307.0624 375.4623)" class="st1" width="3" height="40.2"/>
		</g>
		<g>
			
				<rect x="257.2" y="467.2" transform="matrix(0.7102 -0.704 0.704 0.7102 -273.1985 325.4528)" class="st1" width="3" height="54.8"/>
		</g>
		<g>
			
				<rect x="260.8" y="465.2" transform="matrix(0.7344 -0.6788 0.6788 0.7344 -261.8335 307.7498)" class="st1" width="3" height="46.4"/>
		</g>
		<g>
			
				<rect x="266.8" y="461.4" transform="matrix(0.7779 -0.6284 0.6284 0.7779 -239.9089 274.4419)" class="st1" width="3" height="30.3"/>
		</g>
	</g>
	<g>
		<g>
			<path class="st1" d="M869.5,293.6c-0.3,0-0.7-0.1-0.9-0.3l-23.9-19c-0.4-0.3-0.6-0.7-0.6-1.2v-8.4l-2.3-2.3
				c-0.3-0.3-0.5-0.8-0.4-1.3l19.3-120.2c0-0.2,0.1-0.5,0.3-0.7l22.5-30.3c0.2-0.3,0.6-0.5,1-0.6c0.4-0.1,0.8,0.1,1.1,0.3l5.4,4.4
				l12.8,7.9c0.3,0.2,0.5,0.4,0.6,0.6l16.5,35.8c0.1,0.2,0.2,0.5,0.1,0.7l-7.8,121.6c0,0.6-0.5,1.2-1.1,1.4l-42.2,11.5
				C869.8,293.6,869.7,293.6,869.5,293.6z M847.2,272.4l22.7,18l40.5-11l7.7-120.2l-16.2-35l-12.5-7.7c-0.1,0-0.1-0.1-0.2-0.1
				L885,113l-21.3,28.7l-19.1,119.1l2.2,2.2c0.3,0.3,0.4,0.7,0.4,1.1V272.4z"/>
		</g>
		<g>
			<path class="st1" d="M875.5,151.8c-0.3,0-0.6-0.1-0.9-0.3l-13.3-9.2c-0.3-0.2-0.6-0.6-0.6-1s0-0.8,0.3-1.1l22.5-30.3
				c0.4-0.5,1.1-0.7,1.7-0.5c0.6,0.2,1,0.8,1,1.4v28c0,0.3-0.1,0.7-0.3,0.9l-9.2,11.5C876.4,151.6,876,151.8,875.5,151.8z
				 M864.3,140.8l10.9,7.5l8-10v-22.9L864.3,140.8z"/>
		</g>
		<g>
			<path class="st1" d="M896.6,173.4c-0.1,0-0.3,0-0.4-0.1c-0.4-0.1-0.7-0.4-0.9-0.7l-11.9-21.6c-0.1-0.2-0.2-0.5-0.2-0.7v-39.5
				c0-0.6,0.3-1.1,0.8-1.3c0.5-0.3,1.1-0.2,1.5,0.1l18.4,12.4c0.2,0.2,0.4,0.4,0.5,0.6l16.5,35.8c0.3,0.7,0.1,1.6-0.6,1.9
				l-22.9,12.8C897.1,173.3,896.9,173.4,896.6,173.4z M886.2,149.9l11,19.9l20.4-11.4l-15.8-34.2l-15.7-10.6V149.9z"/>
		</g>
		<g>
			<path class="st1" d="M893.6,287.1c-0.3,0-0.6-0.1-0.9-0.3c-0.4-0.3-0.6-0.7-0.6-1.2l-3-82.3c0-0.1,0-0.2,0-0.3l6-31.4
				c0.1-0.4,0.4-0.8,0.7-1l22.9-12.8c0.5-0.3,1.1-0.3,1.5,0s0.7,0.8,0.7,1.4l-7.8,121.6c0,0.6-0.5,1.2-1.1,1.4L894,287
				C893.9,287.1,893.8,287.1,893.6,287.1z M892.2,203.5l2.9,80.2l15.3-4.1l7.6-117.8L898,172.9L892.2,203.5z"/>
		</g>
		<g>
			<path class="st1" d="M863.7,286.4l-3-0.3l13.3-136c0.1-0.8,0.7-1.4,1.5-1.4h9.2v3h-7.8L863.7,286.4z"/>
		</g>
		<g>
			<path class="st1" d="M884.7,217c-0.2,0-0.4,0-0.5-0.1c-0.7-0.3-1.1-1.1-0.9-1.8l11.9-43.6c0.2-0.8,1-1.2,1.8-1.1
				c0.8,0.2,1.3,1,1.1,1.7l-6,31.4c0,0.1-0.1,0.3-0.1,0.4l-6,12.2C885.8,216.7,885.2,217,884.7,217z"/>
		</g>
		<g>
			<rect x="883.2" y="215.5" class="st1" width="3" height="72.5"/>
		</g>
		<g>
			
				<rect x="856.5" y="214.9" transform="matrix(0.2636 -0.9646 0.9646 0.2636 458.3396 1033.2239)" class="st1" width="98.9" height="3"/>
		</g>
		<g>
			<path class="st1" d="M892.2,159.1h-3v-28.5c0-0.5,0.3-1,0.7-1.3c0.4-0.3,1-0.3,1.5,0l20.8,10.8l-1.4,2.7l-18.6-9.6V159.1z"/>
		</g>
		<g>
			
				<rect x="894.1" y="115.5" transform="matrix(0.3199 -0.9474 0.9474 0.3199 488.7917 934.8143)" class="st1" width="3" height="23"/>
		</g>
		<g>
			
				<rect x="865.7" y="131.8" transform="matrix(0.9606 -0.278 0.278 0.9606 -2.5523 248.5931)" class="st1" width="19.4" height="3"/>
		</g>
		<g>
			<path class="st1" d="M960.2,124.8h-30.6c-0.7,0-1.3-0.5-1.5-1.2l-3.1-13.8c-0.1-0.3,0-0.7,0.1-1l15.1-30.3c0.3-0.6,1-0.9,1.6-0.8
				c0.7,0.1,1.2,0.7,1.2,1.4l1.7,21.6l16.6,21.7c0.3,0.5,0.4,1.1,0.2,1.6S960.8,124.8,960.2,124.8z M930.8,121.8h26.4l-15-19.6
				c-0.2-0.2-0.3-0.5-0.3-0.8l-1.3-16.6l-12.5,25L930.8,121.8z"/>
		</g>
		<g>
			<path class="st1" d="M917.2,197.9c-0.3,0-0.5-0.1-0.7-0.2c-0.5-0.3-0.8-0.8-0.8-1.4l2.4-37l-14.7-31.8c-0.2-0.3-0.2-0.7-0.1-1.1
				l10.2-30.3c0.1-0.3,0.3-0.5,0.5-0.7l19.7-15.1c0.1-0.1,0.3-0.2,0.4-0.2l6.9-2.3c0.5-0.2,1-0.1,1.4,0.3l11,9.2
				c0.3,0.2,0.4,0.5,0.5,0.8l7.2,33.4l6.1-1.5c0.4-0.1,0.9,0,1.3,0.3c0.4,0.3,0.6,0.7,0.6,1.2V143c0,0.1,0,0.1,0,0.2l-7.6,50.7
				c-0.1,0.5-0.4,1-0.9,1.2s-1.1,0.1-1.5-0.2l-10.5-8l-6,7.8c-0.3,0.4-0.7,0.6-1.2,0.6c-0.5,0-0.9-0.2-1.2-0.5l-6.5-7.9L918,197.6
				C917.8,197.8,917.5,197.9,917.2,197.9z M906.4,126.8l14.6,31.6c0.1,0.2,0.2,0.5,0.1,0.7l-2.2,34.3l14.5-9.9
				c0.6-0.4,1.5-0.3,2,0.3l6.1,7.5l5.7-7.5c0.5-0.7,1.4-0.8,2.1-0.3l9.7,7.4l7.2-48.1v-19.6l-5.7,1.4c-0.4,0.1-0.8,0-1.1-0.2
				c-0.3-0.2-0.6-0.6-0.7-1l-7.5-34.4l-10-8.3l-5.9,2l-19.2,14.7L906.4,126.8z"/>
		</g>
		<g>
			<rect x="924.4" y="87.9" class="st1" width="12.1" height="3"/>
		</g>
		<g>
			
				<rect x="910.1" y="108.7" transform="matrix(0.9965 -8.398838e-02 8.398838e-02 0.9965 -6.0089 77.5167)" class="st1" width="16.3" height="3"/>
		</g>
		<g>
			<rect x="907" y="116" transform="matrix(0.9793 -0.2025 0.2025 0.9793 -4.7775 188.2244)" class="st1" width="21" height="3"/>
		</g>
		<g>
			
				<rect x="906.3" y="119.9" transform="matrix(0.9867 -0.1628 0.1628 0.9867 -7.527 150.9665)" class="st1" width="22.6" height="3"/>
		</g>
		<g>
			<path class="st1" d="M919.6,160.6c-0.6,0-1.1-0.3-1.4-0.9l-2.1-4.5c-0.2-0.4-0.2-0.8,0-1.2l12.1-31.3c0.3-0.7,1.1-1.1,1.9-0.9
				c0.8,0.3,1.2,1.1,1,1.8l-10,35.8c-0.2,0.6-0.7,1-1.3,1.1C919.6,160.6,919.6,160.6,919.6,160.6z M919.1,154.5l0.1,0.2l0.5-1.7
				L919.1,154.5z"/>
		</g>
		<g>
			
				<rect x="958.7" y="86.7" transform="matrix(0.9091 -0.4167 0.4167 0.9091 43.6098 409.6102)" class="st1" width="3" height="36.3"/>
		</g>
		<g>
			
				<rect x="923.6" y="153.6" transform="matrix(0.139 -0.9903 0.9903 0.139 669.3096 1079.9519)" class="st1" width="64.2" height="3"/>
		</g>
		<g>
			
				<rect x="912.7" y="155.6" transform="matrix(0.2359 -0.9718 0.9718 0.2359 571.3076 1040.7672)" class="st1" width="69.6" height="3"/>
		</g>
		<g>
			
				<rect x="910.9" y="153.7" transform="matrix(0.2286 -0.9735 0.9735 0.2286 576.9311 1038.5109)" class="st1" width="65.7" height="3"/>
		</g>
		<g>
			<path class="st1" d="M920.1,173.3l-1-2.8l21.8-7.8l5.1-4.8c0.1-0.1,0.3-0.2,0.4-0.3l8.7-3.8l1.2,2.7l-8.5,3.7l-5.2,4.8
				c-0.1,0.1-0.3,0.2-0.5,0.3L920.1,173.3z"/>
		</g>
		<g>
			<path class="st1" d="M979.5,301.4c-0.2,0-0.3,0-0.5-0.1l-37.9-11.9c-0.6-0.2-1-0.7-1-1.3l-5.3-62.9c0-0.1,0-0.3,0-0.4l5.3-31.4
				c0-0.2,0.1-0.5,0.3-0.7l6.9-8.9c0.5-0.7,1.4-0.8,2.1-0.3l11.7,8.9l30.5,21.8c0.3,0.2,0.5,0.5,0.6,0.8l17.4,62
				c0.1,0.3,0.1,0.6,0,0.8l-3.2,10.6c-0.1,0.4-0.4,0.7-0.8,0.9l-25.5,11.9C979.9,301.4,979.7,301.4,979.5,301.4z M943,286.9
				l36.3,11.4l24.3-11.4l2.9-9.5l-17.2-61l-30.1-21.5l-10.6-8.1l-5.7,7.5l-5.3,30.9L943,286.9z"/>
		</g>
		<g>
			<path class="st1" d="M941.6,289.5c-0.1,0-0.2,0-0.4,0l-29.8-7.4c-0.7-0.2-1.2-0.8-1.1-1.6l5.4-84.3c0-0.5,0.3-0.9,0.7-1.1
				l17.1-11.6c0.6-0.4,1.5-0.3,2,0.3l7.3,8.9c0.3,0.3,0.4,0.8,0.3,1.2l-5.3,31.2l5.3,62.7c0,0.5-0.2,1-0.5,1.3
				C942.3,289.4,941.9,289.5,941.6,289.5z M913.3,279.5l26.6,6.6l-5.2-60.8c0-0.1,0-0.3,0-0.4l5.2-30.8l-6-7.4l-15.3,10.5
				L913.3,279.5z"/>
		</g>
		<g>
			<path class="st1" d="M924.4,214c-0.4,0-0.8-0.2-1.1-0.4l-6.9-6.9l2.1-2.1l4.8,4.9l3.8-21.2l3,0.5l-4.4,24c-0.1,0.6-0.5,1-1,1.2
				C924.7,214,924.5,214,924.4,214z"/>
		</g>
		<g>
			
				<rect x="931.5" y="211.5" transform="matrix(0.9733 -0.2294 0.2294 0.9733 -32.2537 220.7143)" class="st1" width="3" height="75.1"/>
		</g>
		<g>
			<path class="st1" d="M978.1,300.5l-7.3-17.9c0-0.1,0-0.1-0.1-0.2l-16.4-59.3l-6.9-6.5c-0.3-0.3-0.5-0.7-0.5-1.1v-30.7
				c0-0.6,0.4-1.2,1-1.4c0.6-0.2,1.3,0,1.7,0.5l31,37.6c0.1,0.1,0.2,0.3,0.3,0.5l16.3,46.9l5.5,16.4c0.1,0.3,0.1,0.7,0,1l-2.5,6.5
				l-2.8-1.1l2.3-6l-5.3-15.9l-16.2-46.6L950,188.9v25.9l6.8,6.4c0.2,0.2,0.3,0.4,0.4,0.7l16.5,59.6l7.2,17.8L978.1,300.5z"/>
		</g>
		<g>
			<path class="st1" d="M951.1,292.4l-9.3-50.3l-7-16.4l2.8-1.2l7.1,16.5c0,0.1,0.1,0.2,0.1,0.3l9.3,50.5L951.1,292.4z"/>
		</g>
		<g>
			<path class="st1" d="M972.2,283.5c-0.2,0-0.4,0-0.5-0.1l-23.7-8.9l1.1-2.8l23.1,8.6l22.8-12.4l7.9-7.2l2,2.2l-8,7.3
				c-0.1,0.1-0.2,0.1-0.3,0.2l-23.6,12.8C972.7,283.5,972.4,283.5,972.2,283.5z"/>
		</g>
		<g>
			<path class="st1" d="M938.1,229.8l-1-2.8l18.1-6.1c0.2-0.1,0.3-0.1,0.5-0.1H979l10.9-6.6l1.6,2.6l-11.2,6.8
				c-0.2,0.1-0.5,0.2-0.8,0.2H956L938.1,229.8z"/>
		</g>
		<g>
			
				<rect x="936.4" y="219.2" transform="matrix(0.9877 -0.1563 0.1563 0.9877 -22.8793 150.3087)" class="st1" width="16.3" height="3"/>
		</g>
		<g>
			
				<rect x="948.2" y="208.8" transform="matrix(0.975 -0.222 0.222 0.975 -22.7831 217.9796)" class="st1" width="19.8" height="3"/>
		</g>
		<g>
			
				<rect x="966" y="195.4" transform="matrix(0.1803 -0.9836 0.9836 0.1803 593.5886 1117.9562)" class="st1" width="3" height="14.9"/>
		</g>
		<g>
			<path class="st1" d="M967.8,267.5c-0.2,0-0.4,0-0.6-0.1l-21.8-10.1l1.3-2.7l21.3,9.9l22.3-6.7l-0.5-1.4l-23.9,3.4
				c-0.3,0-0.5,0-0.8-0.1l-20.8-8.3l1.1-2.8l20.4,8.1l24.7-3.5c0.7-0.1,1.4,0.3,1.6,1l1.4,4c0.1,0.4,0.1,0.8-0.1,1.2
				s-0.5,0.6-0.9,0.8l-24.3,7.3C968,267.4,967.9,267.5,967.8,267.5z"/>
		</g>
		<g>
			
				<rect x="860.9" y="182.9" transform="matrix(0.871 -0.4914 0.4914 0.871 14.2268 449.246)" class="st1" width="3" height="29.4"/>
		</g>
		<g>
			
				<rect x="860.2" y="191.5" transform="matrix(0.862 -0.5069 0.5069 0.862 13.8956 465.4114)" class="st1" width="3" height="31.3"/>
		</g>
		<g>
			
				<rect x="858.6" y="201.5" transform="matrix(0.793 -0.6093 0.6093 0.793 47.2933 568.5045)" class="st1" width="3" height="26.4"/>
		</g>
		<g>
			
				<rect x="856.4" y="219.7" transform="matrix(0.8385 -0.5449 0.5449 0.8385 10.1131 505.4989)" class="st1" width="3" height="31.9"/>
		</g>
		<g>
			
				<rect x="855.9" y="225.4" transform="matrix(0.8084 -0.5887 0.5887 0.8084 22.4432 550.9283)" class="st1" width="3" height="31.2"/>
		</g>
	</g>
	<g>
		<g>
			<path class="st1" d="M708.2,716.5H643c-0.4,0-0.8-0.2-1-0.4l-33.4-32.6c-0.3-0.3-0.5-0.7-0.5-1.1c0-0.4,0.2-0.8,0.5-1.1
				l15.1-12.7c0.2-0.2,0.5-0.3,0.8-0.3l15.8-1.5l6-13.5c0.2-0.4,0.5-0.7,0.8-0.8l43-15.9c0.6-0.2,1.2-0.1,1.6,0.4l16.3,17h16.9
				c0.4,0,0.8,0.1,1,0.4l28.6,27.1c0.4,0.3,0.5,0.8,0.4,1.3c-0.1,0.5-0.4,0.9-0.9,1.1l-15.9,7.2c-0.2,0.1-0.5,0.1-0.8,0.1l-13.5-1.4
				v15c0,0.5-0.2,0.9-0.6,1.2l-14.3,10.3C708.9,716.4,708.5,716.5,708.2,716.5z M643.6,713.5h64.1l13.3-9.6V688
				c0-0.4,0.2-0.8,0.5-1.1c0.3-0.3,0.7-0.4,1.2-0.4l14.7,1.5l13.5-6.1l-26.6-25.1h-16.9c-0.4,0-0.8-0.2-1.1-0.5l-16-16.8L648.9,655
				l-6.1,13.7c-0.2,0.5-0.7,0.8-1.2,0.9l-16.2,1.5l-13.5,11.4L643.6,713.5z"/>
		</g>
		<g>
			<path class="st1" d="M710.6,898h-61.3c-0.8,0-1.5-0.7-1.5-1.5v-12.8l-9.4,8.3c-0.4,0.4-1,0.5-1.5,0.3c-0.5-0.2-0.9-0.7-1-1.2
				l-27.8-208.5l3-0.4l27.5,205.7l9.8-8.7c0.4-0.4,1.1-0.5,1.6-0.2c0.5,0.2,0.9,0.8,0.9,1.4V895h59.3l34.9-22.5l14.9-72.8l-7.2-12.7
				H744c-0.4,0-0.8-0.2-1.1-0.5s-0.4-0.7-0.4-1.1l9.5-103l3,0.3L745.7,784h7.9c0.5,0,1,0.3,1.3,0.8l8,13.9c0.2,0.3,0.2,0.7,0.2,1
				l-15.1,74c-0.1,0.4-0.3,0.7-0.7,1l-35.8,23.1C711.2,897.9,710.9,898,710.6,898z"/>
		</g>
		<g>
			<rect x="721.1" y="704.7" class="st1" width="3" height="184.1"/>
		</g>
		<g>
			<rect x="736.2" y="689.6" class="st1" width="3" height="37.8"/>
		</g>
		<g>
			
				<rect x="663" y="811" transform="matrix(4.948298e-02 -0.9988 0.9988 4.948298e-02 -113.7132 1505.572)" class="st1" width="142.2" height="3"/>
		</g>
		<g>
			<path class="st1" d="M747.2,804.1c-0.1,0-0.3,0-0.4,0l-12.4-3.2c-0.5-0.1-0.9-0.5-1-0.9c-0.2-0.5-0.1-1,0.1-1.4l9.2-13.9
				c0.3-0.4,0.7-0.7,1.2-0.7h9.5c0.5,0,1,0.3,1.3,0.8l8,13.9c0.2,0.4,0.3,0.9,0.1,1.4c-0.2,0.4-0.6,0.8-1,0.9l-14.3,3.2
				C747.4,804.1,747.3,804.1,747.2,804.1z M737.2,798.5l10,2.6l12-2.7l-6.5-11.4h-7.9L737.2,798.5z"/>
		</g>
		<g>
			
				<rect x="706.7" y="838.3" transform="matrix(8.528112e-02 -0.9964 0.9964 8.528112e-02 -156.1396 1509.4708)" class="st1" width="74.7" height="3"/>
		</g>
		<g>
			
				<rect x="666.2" y="715" transform="matrix(0.9987 -5.129405e-02 5.129405e-02 0.9987 -37.388 35.2286)" class="st1" width="3" height="62"/>
		</g>
		<g>
			<rect x="666.2" y="789.4" class="st1" width="3" height="72.8"/>
		</g>
		<g>
			<rect x="664.6" y="871.8" class="st1" width="3" height="24.7"/>
		</g>
		<g>
			<rect x="691.6" y="805.7" class="st1" width="3" height="90.7"/>
		</g>
		<g>
			
				<rect x="631.9" y="692.8" transform="matrix(0.9916 -0.1291 0.1291 0.9916 -96.5247 88.3872)" class="st1" width="3" height="191.6"/>
		</g>
		<g>
			<polygon class="st1" points="647.9,896.5 641.5,715.1 639.9,668.2 642.9,668.1 644.5,715 650.9,896.4 			"/>
		</g>
		<g>
			
				<rect x="708.8" y="655.2" transform="matrix(0.9948 -0.102 0.102 0.9948 -66.021 76.0376)" class="st1" width="3" height="56.4"/>
		</g>
		<g>
			<polygon class="st1" points="694.6,796.7 691.6,796.7 691.6,715 689.2,637.9 692.2,637.8 694.6,715 			"/>
		</g>
	</g>
	<g>
		<g>
			<path class="st1" d="M1238.5,540.4h-25c-0.2,0-0.4-0.1-0.6-0.1l-77.5-37.2c-0.4-0.2-0.7-0.5-0.8-0.9l-21.8-76.7
				c-0.2-0.7,0.1-1.5,0.8-1.8l62.2-28.3c0.3-0.2,0.7-0.2,1.1-0.1l83.2,26.7c0.4,0.1,0.8,0.5,0.9,0.9l34.7,93.7
				c0.3,0.8-0.1,1.6-0.9,1.9l-55.7,21.8C1238.9,540.4,1238.7,540.4,1238.5,540.4z M1213.8,537.4h24.4l54.1-21.2l-34-91.6l-81.9-26.3
				l-60.5,27.5l21.3,74.8L1213.8,537.4z"/>
		</g>
		<g>
			<path class="st1" d="M1136.1,503.2l-0.3-3l44.5-4.8l22.3-40.6l-27.5-57.5l2.7-1.3l27.9,58.2c0.2,0.4,0.2,0.9,0,1.4l-23,42
				c-0.2,0.4-0.7,0.7-1.2,0.8L1136.1,503.2z"/>
		</g>
		<g>
			<path class="st1" d="M1243.3,529.1c-0.5,0-1-0.3-1.3-0.8c-0.3-0.6-0.2-1.3,0.2-1.8l29.7-32.5l-68.5-37.8l1.5-2.6l67.9,37.5v-27.7
				h3v29.7l19.6,23c0.3,0.4,0.4,1,0.3,1.5c-0.2,0.5-0.6,0.9-1.1,1l-50.9,10.5C1243.5,529.1,1243.4,529.1,1243.3,529.1z
				 M1274.3,495.9l-26.7,29.2l43.9-9.1L1274.3,495.9z"/>
		</g>
		<g>
			<path class="st1" d="M1238.5,540.4c-0.2,0-0.5-0.1-0.7-0.2l-79.2-39.6c-0.2-0.1-0.5-0.3-0.6-0.6l-45.1-74.2
				c-0.3-0.5-0.3-1.2,0.1-1.7c0.4-0.5,1-0.7,1.5-0.6l109,24.2c0.4,0.1,0.8,0.4,1,0.7l13.3,23.5l-2.6,1.5l-13-22.9l-104.9-23.3
				l42.8,70.4l21-2.2c0.5-0.1,1,0.2,1.3,0.5l10.2,12.6l51.3,17.6c0.4,0.1,0.7,0.4,0.9,0.8c0.2,0.4,0.2,0.8,0,1.2l-4.8,11.3
				c-0.2,0.4-0.5,0.7-0.9,0.8C1238.8,540.4,1238.7,540.4,1238.5,540.4z M1164.5,500.2l73.2,36.7l3.6-8.4l-50.2-17.2
				c-0.3-0.1-0.5-0.3-0.7-0.5l-10-12.3L1164.5,500.2z"/>
		</g>
	</g>
	<g>
		<g>
			<path class="st1" d="M945.6,902.3C945.6,902.3,945.5,902.3,945.6,902.3l-51.5-3.2c-0.8,0-1.4-0.7-1.4-1.5v-15.9l-8.9-3.5
				c-0.6-0.2-0.9-0.8-0.9-1.4v-9.3l-17.9-3.9l-40.4-8.2c-0.6-0.1-1.1-0.6-1.2-1.2l-2.3-15.6c0-0.3,0-0.6,0.1-0.9l9.7-19.5l-7.2-8.3
				c-0.4-0.4-0.5-1.1-0.2-1.6l7.7-17.4v-7.3c0-0.4,0.1-0.7,0.4-1l25.5-28.6v-9.5c0-0.3,0.1-0.6,0.3-0.9l13.5-19.2
				c0.2-0.3,0.5-0.5,0.9-0.6l12.4-3l46.5-58c0.1-0.2,0.3-0.3,0.5-0.4l52-25.4c0.1-0.1,0.3-0.1,0.5-0.1l35.3-4.6
				c0.4-0.1,0.9,0.1,1.2,0.4s0.5,0.7,0.5,1.2L1016,744l10.3,32.3c0.1,0.3,0.1,0.7-0.1,1.1l-45.1,103.9c-0.1,0.2-0.2,0.3-0.3,0.4
				l-11.4,12.1c-0.2,0.2-0.3,0.3-0.6,0.4l-12.6,4.8l-10.3,3.2C945.9,902.3,945.8,902.3,945.6,902.3z M895.7,896.2l49.7,3.1l9.9-3.1
				l12.2-4.7l10.9-11.7l44.8-103.1l-10.2-32c-0.1-0.2-0.1-0.3-0.1-0.5l4.5-108.9l-33.2,4.4l-51.5,25.2l-46.6,58.1
				c-0.2,0.3-0.5,0.4-0.8,0.5l-12.4,3l-12.9,18.3v9.6c0,0.4-0.1,0.7-0.4,1l-25.5,28.6v7c0,0.2,0,0.4-0.1,0.6l-7.4,16.9l7.2,8.4
				c0.4,0.5,0.5,1.1,0.2,1.6l-9.9,20l2.1,14.1l39.4,8l19.1,4.2c0.7,0.2,1.2,0.8,1.2,1.5v9.5l8.9,3.5c0.6,0.2,0.9,0.8,0.9,1.4V896.2z
				"/>
		</g>
		<g>
			<path class="st1" d="M989.6,687.6h-21.2c-0.3,0-0.5-0.1-0.8-0.2L931,664.9c-0.5-0.3-0.7-0.8-0.7-1.3c0-0.5,0.3-1,0.8-1.3l52-25.4
				c0.5-0.3,1.2-0.2,1.7,0.2l25.4,22.5c0.3,0.3,0.5,0.7,0.5,1.1v8.6c0,0.4-0.2,0.9-0.5,1.1l-19.7,16.8
				C990.3,687.5,990,687.6,989.6,687.6z M968.9,684.6h20.2l18.7-16v-7.2l-24.2-21.4l-48.7,23.8L968.9,684.6z"/>
		</g>
		<g>
			<path class="st1" d="M971.2,718.5l-1.4-2.7l18.3-9.3v-20.5h3v21.4c0,0.6-0.3,1.1-0.8,1.3L971.2,718.5z"/>
		</g>
		<g>
			<path class="st1" d="M877.5,864.7l-2.9-0.7l7.2-28.8c0-0.2,0.1-0.4,0.2-0.5l87-117.9l-1.9-27.5l-15.3,13.5
				c-0.1,0.1-0.3,0.2-0.4,0.3l-21.2,9.1l-20.1,17.5l1.4,0.5c0.6,0.2,1,0.8,1,1.4v36.3c0,0.3-0.1,0.6-0.3,0.9l-63.1,90.7
				c-0.4,0.6-1.2,0.8-1.9,0.5c-0.7-0.3-1-1-0.8-1.7l10.5-40.7c0.1-0.2,0.1-0.4,0.3-0.5l42.3-54.4v-27.1c0-0.4,0.2-0.8,0.5-1.1
				l4.2-3.6l-19.9-7.3l1-2.8l21.5,7.8l21.5-18.7c0.1-0.1,0.3-0.2,0.4-0.2l21.2-9.1l17.4-15.4c0.4-0.4,1-0.5,1.6-0.3
				c0.5,0.2,0.9,0.7,0.9,1.3l2.1,31.1c0,0.4-0.1,0.7-0.3,1l-87.1,118.1L877.5,864.7z M860,818.5l-8.3,32.3l58-83.5v-34.8l-2-0.7
				l-4.9,4.3V763c0,0.3-0.1,0.7-0.3,0.9L860,818.5z"/>
		</g>
		<g>
			
				<rect x="893.3" y="729.5" transform="matrix(0.6185 -0.7858 0.7858 0.6185 -215.8007 1017.6151)" class="st1" width="93.5" height="3"/>
		</g>
		<g>
			
				<rect x="888.5" y="716.7" transform="matrix(0.4682 -0.8836 0.8836 0.4682 -171.265 1174.2965)" class="st1" width="3" height="25.5"/>
		</g>
		<g>
			
				<rect x="872.8" y="746.3" transform="matrix(0.5804 -0.8143 0.8143 0.5804 -256.552 1033.1198)" class="st1" width="3" height="38.5"/>
		</g>
		<g>
			<path class="st1" d="M895.6,881.4l-2.6-1.4l11.5-21l34.8-78l2.7,1.2l-34.8,78c0,0,0,0.1-0.1,0.1L895.6,881.4z"/>
		</g>
		<g>
			<path class="st1" d="M925.2,899.6l-3-0.2l0.9-11c0-0.3,0.2-0.7,0.4-0.9l14.6-15.5l32.8-59.9l10.4-25.9c0.1-0.2,0.2-0.4,0.4-0.6
				l15.1-12.8v-10.3h3v11c0,0.4-0.2,0.9-0.5,1.1l-15.3,13.1l-10.3,25.7c0,0.1,0,0.1-0.1,0.2l-33,60.1c-0.1,0.1-0.1,0.2-0.2,0.3
				L926,889.1L925.2,899.6z"/>
		</g>
		<g>
			
				<rect x="973.3" y="822.6" transform="matrix(0.8175 -0.576 0.576 0.8175 -293.397 722.45)" class="st1" width="39.6" height="3"/>
		</g>
		<g>
			
				<rect x="1007.7" y="767.5" transform="matrix(0.5434 -0.8395 0.8395 0.5434 -194.3658 1203.6713)" class="st1" width="3" height="26.1"/>
		</g>
		<g>
			
				<rect x="964.6" y="763.7" transform="matrix(0.313 -0.9498 0.9498 0.313 -78.2705 1454.2642)" class="st1" width="3" height="35"/>
		</g>
		<g>
			
				<rect x="953.9" y="778.2" transform="matrix(0.2962 -0.9551 0.9551 0.2962 -90.7548 1474.9381)" class="st1" width="3" height="41.6"/>
		</g>
		<g>
			<path class="st1" d="M943.8,901.5l-2.7-1.4l34.2-64.9l-3.4-24.1l-38.8-12.7l0.9-2.9l39.7,13c0.5,0.2,0.9,0.7,1,1.2l3.5,25.5
				c0,0.3,0,0.6-0.2,0.9L943.8,901.5z"/>
		</g>
		<g>
			<path class="st1" d="M907.2,898.7l-2.9-0.8l3.4-12.6l-3.4-25.4l-4.5-10.4c-0.2-0.4-0.2-0.9,0.1-1.4l37.1-62.2
				c0.4-0.6,1.1-0.9,1.7-0.7l39.4,12.4l-0.9,2.9l-38.3-12L902.9,849l4.3,9.9c0.1,0.1,0.1,0.3,0.1,0.4l3.5,25.9c0,0.2,0,0.4,0,0.6
				L907.2,898.7z"/>
		</g>
		<g>
			
				<rect x="915.5" y="879.1" transform="matrix(0.195 -0.9808 0.9808 0.195 -131.7627 1613.3247)" class="st1" width="3" height="15.6"/>
		</g>
		<g>
			
				<rect x="869.4" y="806.5" transform="matrix(0.7252 -0.6885 0.6885 0.7252 -321.125 823.2455)" class="st1" width="3" height="14.9"/>
		</g>
		<g>
			
				<rect x="882.2" y="789.5" transform="matrix(0.4743 -0.8804 0.8804 0.4743 -236.1901 1196.3972)" class="st1" width="3" height="13"/>
		</g>
		<g>
			
				<rect x="880.2" y="729.1" transform="matrix(0.7799 -0.6259 0.6259 0.7799 -276.5886 717.2974)" class="st1" width="3" height="45.7"/>
		</g>
		<g>
			
				<rect x="883.6" y="721.8" transform="matrix(0.6358 -0.7718 0.7718 0.6358 -250.9151 953.6512)" class="st1" width="3" height="41.8"/>
		</g>
		<g>
			<path class="st1" d="M885.7,867l-2.5-1.6c2-3.1,49.8-76.2,56.3-84.8c8-10.7,27.3-9.4,33-8.7c8.7,1,23.4-9.5,24.8-10.6l15-16.9
				L974.4,716l1.8-2.4l39.2,29.4c0.3,0.3,0.6,0.6,0.6,1c0,0.4-0.1,0.8-0.4,1.1l-16.2,18.2c-0.1,0.1-0.1,0.1-0.2,0.2
				c-0.7,0.5-16.8,12.5-27.1,11.3c-11-1.3-24.7,0-30.3,7.5C935.4,790.9,886.2,866.3,885.7,867z"/>
		</g>
		<g>
			
				<rect x="997.3" y="703" transform="matrix(0.6039 -0.797 0.797 0.6039 -180.847 1082.5153)" class="st1" width="3" height="40.4"/>
		</g>
		<g>
			
				<rect x="1001" y="700.4" transform="matrix(0.527 -0.8498 0.8498 0.527 -133.9142 1190.3605)" class="st1" width="3" height="30.3"/>
		</g>
		<g>
			
				<rect x="965.9" y="736.3" transform="matrix(0.5634 -0.8262 0.8262 0.5634 -203.9252 1130.1199)" class="st1" width="3" height="43.4"/>
		</g>
		<g>
			
				<rect x="960.5" y="742.7" transform="matrix(0.5745 -0.8185 0.8185 0.5745 -214.3133 1111.5676)" class="st1" width="3" height="38.5"/>
		</g>
		<g>
			
				<rect x="921.7" y="888.1" transform="matrix(9.763463e-02 -0.9952 0.9952 9.763463e-02 -43.5632 1731.233)" class="st1" width="22.4" height="3"/>
		</g>
		<g>
			<path class="st1" d="M962.4,898.2l-2.7-1.3l5.8-12.3l-9.7-7.2l-22,16.6l-1.8-2.4l22.9-17.3c0.5-0.4,1.3-0.4,1.8,0l11.6,8.6
				c0.6,0.4,0.8,1.2,0.5,1.8L962.4,898.2z"/>
		</g>
		<g>
			
				<rect x="886" y="882.9" transform="matrix(0.4441 -0.896 0.896 0.4441 -291.5976 1298.736)" class="st1" width="29.6" height="3"/>
		</g>
		<g>
			
				<rect x="956.3" y="879.2" transform="matrix(0.8364 -0.5481 0.5481 0.8364 -329.9413 670.2355)" class="st1" width="3" height="17.2"/>
		</g>
	</g>
	<g>
		<g>
			<path class="st1" d="M1174.5,902.3c-0.9,0-1.9-0.2-3-0.6c-1.2-0.5-2.1-1.4-2.9-2.2c-0.2-0.2-0.4-0.4-0.6-0.6
				c-1.3-1.1-2.5-2-4.2-2.9c-1.1-0.6-2.3-1.1-3.5-1.6c-2.1-0.9-4.3-1.8-6.1-3.1c-0.6-0.4-1.2-0.9-1.7-1.4c-1.4-1.2-2.6-2.3-4.1-2.4
				c-1.6-0.1-3.2,0.1-4.9,0.3c-1.3,0.1-2.7,0.3-4.2,0.3c-0.3,0-0.5,0-0.8,0c-1.7,0.1-3.9,0.2-5.5-1.7c-0.8-1-1.2-2.1-1.7-3.2
				c-0.4-1-0.7-1.9-1.3-2.5c-1.4-1.5-3.2-2-5.4-2.5c-0.6-0.2-1.3-0.3-1.9-0.5c-0.5-0.1-0.9-0.3-1.4-0.5c-0.5-0.2-1-0.4-1.5-0.5
				c-0.5-0.1-1.1-0.2-1.8-0.2c-0.6-0.1-1.3-0.1-1.9-0.2c-1.3-0.3-2.4-0.8-3.5-1.2c-0.5-0.2-1-0.4-1.5-0.6l-0.5-0.2
				c-2.8-1-5.9-2.2-7.9-4.9c-1.4-1.8-1.1-4.5-1-6.8c0.1-0.7,0.1-1.4,0.1-2c-0.1-2.9-0.8-5.1-2.2-6.6c-1.6-1.6-3.6-2.3-5.8-3.1
				c-1.1-0.4-2.1-0.8-3.2-1.3c-3-1.4-4.3-4-5.5-6.5l-0.2-0.3c-0.6-1.1-1.2-2.3-1.8-3.4c-0.9-1.5-1.8-3.1-2.5-4.8
				c-1.9-4.1-2.9-7.7-3.5-11.5c-0.8-5.2-0.6-10.5-0.5-15.6c0.1-4.2,0.2-8.6-0.2-12.8c-0.3-3.5-0.8-8-2.5-11.3
				c-0.4-0.8-1-1.6-1.6-2.4c-0.6-0.8-1.1-1.6-1.6-2.5c-1.2-2.3-1.8-4.5-1.8-7.6c0-3.9,1.3-7,2.7-9.7c0.8-1.5,1.5-3,2.2-4.5
				c0.9-1.9,1.8-3.8,2.8-5.7c2.5-4.6,2.8-11.4,1.9-16.1c-0.1-0.8-0.4-1.6-0.6-2.4c-0.3-1-0.5-2.1-0.7-3.1c-0.2-1.2-0.2-2.5-0.1-3.7
				c0-0.4,0-0.9,0-1.3c0-2.5,0.6-3.9,1.7-5.8c0.4-0.7,0.8-1.3,1.3-2c1.9-2.9,3.7-5.7,4.7-9c0.9-3.1,0.7-6-0.6-8.5
				c-1-2-2.6-2.6-5-3.6l-0.4-0.1c-0.3-0.1-0.6-0.2-0.9-0.4c-2-0.7-4.2-1.6-5.8-3.2c-2.4-2.4-2.6-6.1-2.6-7.6l0-0.1
				c0-2.8,0.1-5.5,1.6-8.3c1.8-3.3,4.5-6,7-8.6c1.4-1.5,2.8-2.8,4-4.3c1-1.2,1.8-2.5,2.7-3.9c0.7-1.2,1.5-2.4,2.4-3.5
				c1.1-1.5,2.4-2.8,3.7-4c0.8-0.8,1.6-1.6,2.3-2.4l0.5-0.5c1.7-1.9,3.5-3.9,5.6-5.6c2.4-1.9,5.2-2.9,7.9-3.8l0.4-0.1
				c4.1-1.4,8.1-1.3,11.1-1.1c2.7,0.2,5.9,0.4,7.5,4.2c0.9,2.2,1.1,4.4,1.3,6.7l0.1,1c0,0.3,0,0.6,0.1,0.9c0,0.8,0.1,1.4,0.3,2
				c0.3,0.9,1,1.8,1.6,2.7c0.3,0.4,0.5,0.7,0.8,1.1c0,0,0.1,0.1,0.1,0.2c0.3,0.6,1.9,1.9,4.9,2.8c3.9,1.2,7.6,0.8,11.5-1.3
				c2.8-1.5,5.6-1.4,8.7-1.1c4.8,0.4,8.8,1.3,12.9,2.9c3.2,1.3,4.6,2.9,6.6,5.3c1.8,2.2,4.3,4.3,7.5,6.1c1.8,1,5,1.2,6.9,0.4
				c1.3-0.6,2.5-1.5,3.7-2.5c1.8-1.5,3.7-3,6.3-3.6c2.6-0.6,8.8-0.6,11.5,1.9c1.4,1.3,1.7,3.2,2,4.8c0.1,0.5,0.2,1,0.3,1.4
				c0.6,2.3,0.9,2.6,1.8,2.6c1.1,0,2.2-0.1,3.3-0.3c0.7-0.1,1.4-0.2,2.2-0.3c2.9-0.3,4.5,1.3,5.8,2.8c2.3,2.6,2.4,5.1,2.4,7.7
				c0,2.7,0.6,4.7,2.1,6.6c1.9,2.5,4.2,5.1,7.2,8.2c1.1,1.2,2.4,2.3,3.7,3.4c1.2,1,2.4,2,3.5,3.2c3.8,3.9,6.7,7.1,9.2,10.3
				c3.2,4,3.1,8.5,3.1,12.8c0,0.7,0,1.3,0,2c0,5.7-0.6,11.2-1.7,15.9c-0.9,3.8-1.3,7.8-1.7,11.7c-0.4,4-0.8,8-1.8,12.1
				c-0.8,3.3-2.1,6.4-4.3,9.7c-0.2,0.3-0.4,0.7-0.7,1c-1.2,1.7-2.8,4.1-3,5.9c-0.4,3.7,1.4,7.2,3.1,10.2c0.8,1.5,1.6,2.9,2.7,4.1
				c1.2,1.5,1.9,2.5,1.9,4.6c0,2.9-1.2,4.8-2.5,6.8l-0.4,0.7c-0.4,0.6-0.8,1.3-1.1,2c-0.3,0.7-0.7,1.4-1.1,2
				c-0.7,1.2-1.6,2.2-2.5,3.1c-0.4,0.4-0.7,0.8-1.1,1.3c-0.3,0.4-0.7,0.8-1,1.2c-1.8,2.1-3.5,4.1-4.7,6.6c-0.6,1.3-0.6,2.4-0.6,3.9
				c0,0.3,0,0.6,0,0.9l0,0.6c0,1.4,0,2.5,0.4,3.7c0.7,1.9,1.3,3.7,1.7,5.5c0.2,0.8,0.5,1.7,0.8,2.7c0.9,2.8,1.9,6,1.4,9
				c-0.5,3-2.7,6-4.6,7.5c-0.5,0.4-1,0.8-1.6,1.2c-1.4,1-2.5,1.8-3.3,3.3c-0.5,0.9-0.8,2.1-1.1,3.3c-0.1,0.5-0.3,1-0.4,1.5
				c-0.2,0.5-0.2,1.2-0.3,1.8c-0.1,0.7-0.1,1.3-0.3,2c-0.8,3.2-2.4,6.4-4.7,9.7c-0.6,0.8-1.1,1.7-1.6,2.7c-0.7,1.3-1.4,2.6-2.3,3.8
				c-1.1,1.3-2.2,1.6-3.5,1.6c0,0-0.1,0-0.1,0c-2.4,0-4.5-1.3-6.4-2.5c-1.2-0.8-2.3-1.5-3.4-1.8c-2.1-0.7-4.3-0.6-6.7-0.6
				c-0.7,0-1.3,0-2,0c-2.4,0-4.7,0-7,0.5c-3.6,0.7-5.7,2.8-8.4,5.5c-0.4,0.4-0.9,0.9-1.4,1.3
				C1180.1,900.3,1177.6,902.3,1174.5,902.3z M1147.5,884.4c0.3,0,0.6,0,0.8,0c2.6,0.1,4.4,1.7,6,3.1c0.5,0.5,1,0.9,1.5,1.3
				c1.6,1.2,3.5,1.9,5.5,2.8c1.3,0.5,2.6,1.1,3.8,1.7c1.9,1,3.4,2,4.9,3.4c0.2,0.2,0.5,0.4,0.7,0.7c0.6,0.6,1.3,1.3,2,1.6
				c2.2,0.9,4.3,0.2,7.1-2.5c0.5-0.4,0.9-0.9,1.3-1.3c2.8-2.8,5.4-5.4,9.9-6.3c2.6-0.5,5-0.5,7.6-0.5c0.6,0,1.3,0,1.9,0
				c2.5,0,5.1-0.1,7.6,0.7c1.5,0.5,2.8,1.3,4.2,2.2c1.7,1.1,3.2,2.1,4.8,2.1c0,0,0,0,0.1,0c0.8,0,0.9-0.1,1.3-0.5
				c0.8-0.9,1.4-2.1,2-3.3c0.5-1,1.1-2.1,1.8-3c2.1-3,3.5-5.9,4.3-8.8c0.1-0.5,0.2-1,0.2-1.6c0.1-0.7,0.1-1.5,0.4-2.4
				c0.1-0.5,0.3-0.9,0.4-1.4c0.3-1.3,0.7-2.7,1.3-3.9c1.1-2,2.6-3.2,4.2-4.3c0.5-0.3,1-0.7,1.4-1.1c1.7-1.4,3.2-3.8,3.5-5.7
				c0.4-2.3-0.5-5-1.3-7.6c-0.3-1-0.6-1.9-0.8-2.9c-0.4-1.7-1-3.4-1.6-5.2c-0.6-1.7-0.6-3.3-0.6-4.8l0-0.6c0-0.3,0-0.6,0-0.8
				c0-1.7,0-3.4,0.9-5.3c1.4-2.8,3.3-5,5.1-7.2c0.3-0.4,0.7-0.8,1-1.2c0.4-0.5,0.8-0.9,1.2-1.3c0.8-0.9,1.6-1.8,2.2-2.7
				c0.4-0.6,0.7-1.2,1-1.9c0.4-0.7,0.8-1.5,1.3-2.3l0.5-0.7c1.2-1.9,2.1-3.2,2-5.2c0-1.1-0.3-1.5-1.2-2.7c-1.2-1.5-2.1-3-2.9-4.5
				c-1.9-3.4-4-7.4-3.5-12c0.3-2.5,2-5.1,3.4-7.2c0.2-0.4,0.5-0.7,0.7-1c1.9-3,3.2-5.8,3.9-8.7c0.9-3.8,1.3-7.8,1.7-11.7
				c0.4-4,0.8-8,1.8-12.1c1.1-4.5,1.6-9.7,1.6-15.2c0-0.7,0-1.4,0-2c0-4.1,0.1-7.7-2.4-10.9c-2.5-3.1-5.2-6.2-9-10
				c-1-1.1-2.1-2-3.3-3c-1.3-1.1-2.7-2.3-3.9-3.6c-3-3.2-5.4-5.9-7.4-8.5c-1.9-2.5-2.8-5.2-2.7-8.5c0-2.6-0.2-4-1.7-5.7
				c-1.3-1.5-2-1.9-3.3-1.8c-0.7,0.1-1.3,0.2-2,0.3c-1.2,0.2-2.4,0.4-3.8,0.3c-3.4-0.1-4.2-3.1-4.6-4.9c-0.1-0.5-0.2-1.1-0.3-1.6
				c-0.2-1.3-0.4-2.4-1.1-3.1c-1.4-1.4-6.1-1.8-8.8-1.2c-1.9,0.4-3.4,1.7-5.1,3c-1.3,1.1-2.7,2.2-4.4,2.9c-2.7,1.2-6.9,1-9.5-0.5
				c-3.6-2-6.4-4.3-8.4-6.8c-1.7-2.1-2.8-3.4-5.3-4.4c-3.8-1.5-7.5-2.3-12-2.7c-2.7-0.2-4.9-0.3-7,0.8c-4.6,2.5-9.2,3-13.8,1.5
				c-3.2-1-5.7-2.6-6.6-4.2c-0.2-0.3-0.4-0.6-0.7-0.9c-0.8-1-1.6-2.2-2-3.6c-0.3-1-0.4-1.9-0.4-2.7c0-0.3,0-0.5-0.1-0.8l-0.1-1.1
				c-0.2-2-0.3-4-1.1-5.7c-0.8-1.9-2-2.2-4.9-2.4c-4.1-0.3-7.1,0-9.9,1l-0.4,0.1c-2.5,0.8-5,1.7-7,3.3c-1.9,1.5-3.5,3.4-5.2,5.3
				l-0.5,0.5c-0.8,0.9-1.6,1.7-2.4,2.5c-1.2,1.2-2.4,2.4-3.4,3.7c-0.8,1-1.5,2.1-2.2,3.3c-0.9,1.4-1.8,2.9-2.9,4.2
				c-1.3,1.6-2.8,3.1-4.2,4.5c-2.4,2.5-5,5-6.5,7.9c-1.2,2.2-1.2,4.2-1.2,6.9l0,0.1c0,1.8,0.4,4.2,1.7,5.5c1.1,1.1,3,1.9,4.7,2.5
				c0.3,0.1,0.7,0.3,1,0.4l0.4,0.1c2.6,1,5,2,6.6,5c1.6,3.2,1.9,6.9,0.8,10.7c-1.1,3.8-3.1,6.8-5,9.8c-0.4,0.6-0.8,1.3-1.2,1.9
				c-1,1.6-1.3,2.5-1.3,4.2c0,0.5,0,0.9,0,1.4c0,1.1-0.1,2.1,0.1,3.1c0.1,0.9,0.4,1.9,0.7,2.8c0.2,0.9,0.5,1.7,0.6,2.7
				c0.9,4.9,0.9,12.5-2.2,18.1c-1,1.8-1.9,3.7-2.8,5.6c-0.7,1.5-1.4,3-2.2,4.6c-1.4,2.7-2.4,5.2-2.3,8.3c0,2.6,0.4,4.4,1.4,6.2
				c0.4,0.8,0.9,1.5,1.5,2.2c0.6,0.9,1.3,1.8,1.8,2.8c2,3.9,2.5,8.6,2.8,12.4c0.4,4.4,0.3,8.9,0.2,13.2c-0.1,5-0.2,10.2,0.5,15.1
				c0.5,3.6,1.5,6.8,3.2,10.7c0.7,1.6,1.5,3,2.4,4.6c0.6,1.1,1.3,2.3,1.9,3.5l0.2,0.3c1.2,2.3,2.1,4.2,4.1,5.1c1,0.4,1.9,0.8,3,1.2
				c2.4,0.8,4.8,1.7,6.9,3.8c2,2,3,4.9,3.1,8.6c0,0.7-0.1,1.4-0.1,2.3c-0.1,1.6-0.3,3.8,0.4,4.7c1.5,2,4.1,2.9,6.6,3.9l0.5,0.2
				c0.6,0.2,1.1,0.5,1.6,0.7c1,0.4,1.9,0.8,2.8,1c0.5,0.1,1,0.1,1.6,0.2c0.7,0.1,1.4,0.1,2.2,0.3c0.7,0.2,1.3,0.4,1.8,0.6
				c0.4,0.1,0.8,0.3,1.2,0.4c0.6,0.2,1.2,0.3,1.8,0.5c2.3,0.6,5,1.2,6.9,3.4c0.9,1,1.4,2.3,1.8,3.4c0.3,0.9,0.7,1.8,1.2,2.4
				c0.6,0.7,1.5,0.7,3,0.6c0.3,0,0.6,0,0.9,0c1.3,0,2.5-0.2,3.9-0.3C1144.5,884.6,1146,884.4,1147.5,884.4z"/>
		</g>
		<g>
			<path class="st2" d="M1159.3,722.9c-2.1-0.6-3.2,2.5-3.8,3.9c-0.4,0.8-0.9,1.6-1.2,2.4c-0.6,1.4-0.7,2.9-1.1,4.4
				c-0.3,1.2-0.9,2.3-1.2,3.4c-0.6,2.1-0.6,4.6-0.8,6.8c-0.6,5.5-1.1,10.5-0.3,16c0.7,5.1,1.2,10.2,2.5,15.2c0.5,2.1,1.6,4,2.1,6
				c0.5,2,1.1,3.9,2,5.8c0.7,1.5,1.2,3.1,1.8,4.7c0.8,1.8,1,3.7,2,5.4c0.7,1.2,1.6,2.3,2.5,3.3c1.2,1.3,1.8,3,2.7,4.5
				c1.5,2.7,2.7,5.7,4.1,8.5c1.1,2,2.5,5,4.9,5.6c2.6,0.6,3-2,3.2-4c0.2-2.4-1-4-1.6-6.2c-0.7-2.4-0.8-5-1.4-7.5
				c-0.8-3.1-0.9-6.5-0.6-9.6c0.3-3.2,0.7-6.5,1-9.7c0.2-2.3,1-4.4,1.3-6.7c0.4-3.1,0.6-6.2,0.9-9.2c0.2-1.8,0.4-3.6,0.6-5.4
				c0.2-2-0.1-3.9,0-5.9c0.1-2.4,0.9-4.8,0.7-7.2c-0.1-1.9-1.1-3.9-1.8-5.7c-1.1-3-3.1-6.1-4.9-8.7c-1.6-2.3-3.2-4.6-5.2-6.4
				c-1.1-1-2.8-1.7-4.1-2.4c-1-0.6-1.5-0.8-2.6-1C1158.5,722.7,1157.4,724.8,1159.3,722.9z"/>
			<path class="st2" d="M1150.1,719.6c-0.8,0.8-1.3,1.7-1.9,2.5c-0.1,0.2-0.2,0.4-0.4,0.6c-0.2,0.3-0.4,0.7-0.5,0.8
				c-0.3,0.3-0.4,0.5-0.7,1c-0.5,0.9-1,1.9-1.4,2.8c-0.1,0.2-0.2,0.5-0.3,0.7c-0.3,0.9-0.4,1.8-0.6,2.8c-0.2,1.6-0.7,3.2-0.8,4.8
				c0,0.3,0,0.5,0,0.7c0,0.5,0.1,1,0.1,1.5c0,0.9,0,1.8-0.1,2.7c0,0.4,0,0.9-0.1,1.3c-0.1,0.4-0.2,0.7-0.2,1.1
				c-0.2,1-0.5,1.9-0.7,2.9c-0.2,1.1-0.4,2.1-0.7,3.2c-0.2,0.9-0.2,2-0.1,3c0,0.3,0,0.6,0.1,1c0,0.6,0.2,1.1,0.3,1.7
				c0,0.2,0,0.3,0.1,0.5c0.2,1.1,0.2,2.4,0.3,3.5c0.1,1.5,0.1,3.1,0.1,4.6c0,1.4,0.1,2.9,0.1,4.3c0,1.5,0,3,0.4,4.5
				c0.2,0.7,0.4,1.4,0.7,2.1c0.1,0.4,0.3,0.9,0.4,1.4c0.1,0.3,0.1,0.6,0.2,0.9c0.1,0.4,0.2,0.8,0.3,1.2c0.1,0.5,0.2,1.1,0.3,1.6
				c0.2,1,0.3,2,0.5,3c0.1,0.5,0.2,1,0.2,1.5c0.1,0.5,0.1,1.1,0.3,1.6c0.1,0.3,0.3,0.6,0.5,0.9c0.1,0.2,0.3,0.5,0.4,0.7
				c0.1,0.2,0.1,0.3,0.2,0.5c0.1,0.2,0.2,0.3,0.3,0.5c0.6,1.4,0.6,2.9,1.2,4.4c0,0.1,0.1,0.2,0.1,0.2c0.1,0.2,0.2,0.4,0.4,0.5
				c0.5,0.3,0.9,0.8,1.3,1.4c0.4,0.6,0.8,1.4,1.1,2.1c0.2,0.4,0.2,0.8,0.3,1.3c0.1,0.4,0.1,0.7,0.3,1c0.5,0.7,1,1.2,1.5,1.8
				c0.5,0.6,1,1.2,1.5,1.9c0.5,0.7,1,1.7,1.4,2.5c0.2,0.3,0.4,0.5,0.7,0.6c0.1,0,0.1,0.1,0.2,0.1c0.3,0.2,0.7,0.4,1,0.6
				c0.4,0.4,0.8,0.9,1.1,1.3c0.6,0.8,1.2,1.8,2,2.5c0.7,0.7,1.4,1.4,2.1,1.9c0.6,0.5,1.3,1.1,1.9,1.5c0.6,0.4,1.3,0.7,1.8,1.3
				c1.5,1.5,2.7,3.3,4,4.8c0.7,0.8,1.3,1.5,2.1,2.2c0.4,0.4,0.8,0.8,1.2,1.2c1,1.1,2.1,2.2,3.5,2.9c0.5,0.3,1,0.4,1.6,0.5
				c0.4,0.1,0.8,0.1,1.1,0c0.9-0.1,1.5-0.4,1.9-1.2c0.5-0.9,0.9-1.9,1.1-3c0.2-1,0.2-2,0.1-3c0-0.5-0.2-1-0.3-1.5
				c-0.1-0.7-0.1-1.2-0.2-1.9c-0.1-0.4-0.2-0.8-0.2-1.2c0-0.5,0-1.1,0-1.6c0-0.2-0.1-0.5-0.1-0.7c0-0.3,0-0.5,0-0.7
				c0-0.7,0-1.4-0.1-2.1c0-0.7-0.1-1.2-0.1-1.9c0-0.4,0-0.8,0-1.3c0-0.3,0-0.6-0.1-0.9c0-0.2,0-0.5,0-0.7c-0.1-1.3,0.1-2.5,0.1-3.8
				c0.1-1.8,0.1-3.7,0.3-5.6c0.1-0.6,0.1-1.2,0.2-1.8c0.5-3.6,0.7-7.3-0.1-10.5c-0.1-0.4-0.2-0.8-0.3-1.2c-0.1-0.3-0.1-0.7-0.2-1.1
				c-0.1-1,0.1-1.9,0.2-3c0.1-0.7,0.2-1.4,0.3-2c0.1-0.7,0.3-1.5,0.5-2.2c0.5-3.4,0.6-6.9,0.9-10.3c0.2-1.6,0.3-3.2,0.4-4.9
				c0-0.4,0.1-0.8,0.1-1.1c0.1-1.2,0.1-2.4,0.1-3.7c0-1,0-1.9,0-2.9c0.1-2.1,0.5-4.1,0.3-6.1c0-0.6-0.1-1.2-0.2-1.8
				c-0.4-2.1-1.5-4.1-2.5-6c-0.2-0.4-0.4-0.9-0.7-1.3c-1.5-2.7-3.5-5.4-5.4-7.9c-0.4-0.6-0.9-1-1.4-1.5c-0.7-0.7-1.4-1.5-2.1-2.2
				c-1.3-1.2-2.6-2.3-4-3.4c-0.9-0.7-1.9-1.3-3-1.8c-0.8-0.5-1.6-0.9-2.4-1.4c-0.4-0.3-0.8-0.5-1.2-0.7c-0.6-0.3-1.1-0.5-1.8-0.7
				c-0.1,0-0.2-0.1-0.3-0.1c-0.7-0.2-1.2-0.3-1.8-0.3c-1.5,0-2.1,0.7-1.2-0.7c-0.5-0.1-0.9-0.2-1.3-0.2c-1.4,0.1-2.5,1-3.5,1.9
				c-0.4,0.4-0.8,0.7-1.1,1C1151.7,718.3,1150.8,718.9,1150.1,719.6z"/>
			<path class="st2" d="M1146,710c-1.1,0.6-2.1,1.4-3.1,2.1c-0.2,0.2-0.4,0.3-0.6,0.5c-0.4,0.3-0.7,0.8-0.8,0.9
				c-0.6,0.2-0.6,0.3-1.1,0.9c-0.7,1.1-1.3,2.2-1.8,3.3c-0.1,0.3-0.3,0.6-0.4,0.8c-0.5,1.1-0.6,2.1-0.8,3.3
				c-0.4,1.8-1.2,3.8-1.2,5.7c0,0.3,0,0.6,0.1,0.9c0.1,0.6,0.3,1.1,0.4,1.7c0.1,1.1,0.1,2.1,0.1,3.3c0,0.5,0,1.1-0.1,1.6
				c-0.1,0.4-0.3,0.8-0.4,1.2c-0.3,1.2-0.9,2.2-1.2,3.4c-0.3,1.3-0.8,2.4-1.3,3.6c-0.4,1-0.4,2.4-0.4,3.6c0,0.4,0,0.8,0,1.2
				c0,0.7,0.3,1.3,0.4,2c0,0.2,0.1,0.4,0.1,0.6c0.2,1.4,0.2,2.9,0.2,4.2c0.1,1.9-0.1,3.7-0.2,5.5c-0.1,1.7-0.1,3.5-0.2,5.2
				c-0.1,1.7-0.4,3.6,0,5.4c0.2,0.8,0.6,1.7,0.9,2.5c0.2,0.6,0.5,1.3,0.6,1.9c0.1,0.4,0.1,0.8,0.2,1.2c0.1,0.5,0.3,1.1,0.4,1.6
				c0.1,0.7,0.2,1.5,0.3,2.2c0.2,1.4,0.2,2.7,0.3,4c0.1,0.7,0.1,1.4,0.2,2.1c0.1,0.7,0,1.5,0.4,2.1c0.2,0.4,0.6,0.7,0.8,1.1
				c0.2,0.3,0.5,0.6,0.6,0.9c0.1,0.2,0.1,0.5,0.3,0.7c0.1,0.2,0.3,0.4,0.4,0.6c1,1.9,0.6,4,1.4,6c0,0.1,0.1,0.2,0.1,0.3
				c0.1,0.3,0.3,0.5,0.7,0.6c0.8,0.2,1.5,0.8,2.1,1.5c0.7,0.8,1.2,1.8,1.6,2.7c0.2,0.6,0.3,1.1,0.3,1.7c0.1,0.6,0,1,0.4,1.4
				c0.8,0.8,1.7,1.4,2.5,2.1c0.8,0.7,1.7,1.4,2.5,2.2c0.9,0.9,1.5,2.2,2.2,3.3c0.3,0.5,0.6,0.6,1,0.7c0.1,0,0.2,0.1,0.3,0.1
				c0.5,0.2,1,0.3,1.5,0.6c0.7,0.4,1.1,1.2,1.5,1.8c0.8,1.2,1.6,2.5,2.7,3.5c1,0.9,2,1.8,3.2,2.3c1,0.5,2,1.1,3,1.5
				c0.9,0.4,2,0.5,2.9,1.1c1.9,1.3,3.6,2.9,5.3,4.1c0.9,0.6,1.8,1,2.7,1.5c0.5,0.2,1,0.5,1.5,0.9c1.3,0.9,2.7,1.8,4.3,2.4
				c0.6,0.2,1.2,0.3,1.8,0.4c0.4,0,0.8,0,1.2,0c1-0.1,1.7-0.3,2.3-1.1c0.6-0.9,1.2-2,1.6-3.1c0.3-1.2,0.4-2.4,0.5-3.5
				c0-0.6-0.1-1.2-0.1-1.8c0-0.8,0.2-1.5,0.2-2.3c0-0.5-0.1-1,0-1.5c0-0.6,0.2-1.3,0.2-1.9c0-0.3-0.1-0.6-0.1-0.9
				c0-0.3,0.1-0.5,0.1-0.9c0-0.9,0.1-1.7,0.1-2.5c0-0.8,0.1-1.5,0.1-2.3c0.1-0.5,0.2-1,0.2-1.5c0-0.3,0-0.7,0.1-1c0-0.3,0-0.6,0-0.8
				c0.1-1.5,0.5-2.9,0.7-4.5c0.3-2.2,0.4-4.4,0.7-6.6c0.1-0.7,0.2-1.4,0.3-2.1c0.6-4.3,0.8-8.9-1-12.4c-0.2-0.5-0.5-0.9-0.7-1.3
				c-0.2-0.4-0.3-0.7-0.5-1.2c-0.3-1.1-0.2-2.3-0.1-3.5c0.1-0.8,0.1-1.6,0.3-2.4c0.2-0.9,0.4-1.8,0.6-2.7c0.6-3.7,0.5-7.6,0.9-11.3
				c0.2-1.8,0.2-3.6,0.4-5.3c0-0.4,0.1-0.8,0.1-1.2c0.1-1.4,0.2-2.7,0.1-4c0-1,0-2.1,0-3.2c0.1-2.3,0.4-4.6-0.1-6.7
				c-0.1-0.6-0.3-1.3-0.5-1.9c-0.7-2.2-2-4.3-3.2-6.3c-0.3-0.5-0.6-0.9-0.9-1.4c-1.9-2.9-4.2-5.7-6.4-8.2c-0.6-0.7-1.1-1.1-1.8-1.7
				c-1-0.8-1.8-1.7-2.8-2.4c-1.7-1.3-3.5-2.5-5.2-3.7c-1.1-0.8-2.4-1.5-3.7-2.2c-1-0.6-2-1.2-2.9-1.9c-0.5-0.3-1-0.6-1.4-0.9
				c-0.7-0.4-1.4-0.6-2.2-1c-0.1-0.1-0.2-0.1-0.3-0.2c-0.7-0.3-1.4-0.6-2.1-0.7c-1.6-0.2-2.5,0.2-2.2-1.2c-0.6-0.2-1.1-0.3-1.6-0.3
				c-1.8-0.1-3.3,0.4-4.7,1.1c-0.6,0.3-1.1,0.5-1.6,0.7C1148.2,709.1,1147,709.5,1146,710z"/>
			<path class="st2" d="M1141.9,700.4c-1.5,0.4-2.8,1.1-4.2,1.7c-0.3,0.1-0.6,0.2-0.9,0.4c-0.7,0.3-1,0.9-1,0.9
				c-0.8,0.1-0.9,0-1.4,0.9c-0.9,1.2-1.6,2.5-2.3,3.7c-0.2,0.3-0.4,0.6-0.5,1c-0.7,1.3-0.8,2.5-1.1,3.9c-0.5,2.1-1.7,4.4-1.6,6.6
				c0,0.3,0,0.7,0.1,1c0.2,0.7,0.5,1.2,0.6,2c0.2,1.3,0.3,2.4,0.2,3.8c0,0.6,0.1,1.3-0.1,1.9c-0.1,0.5-0.4,1-0.6,1.4
				c-0.5,1.4-1.3,2.5-1.7,3.9c-0.5,1.5-1.2,2.8-1.9,4.1c-0.6,1.1-0.7,2.8-0.6,4.2c0,0.5,0,0.9,0,1.4c0,0.8,0.4,1.5,0.5,2.3
				c0,0.2,0.1,0.5,0.1,0.7c0.2,1.6,0.1,3.4,0.2,4.9c0.1,2.2-0.4,4.3-0.6,6.4c-0.2,2-0.3,4.1-0.6,6.1c-0.3,2-0.9,4.2-0.3,6.3
				c0.2,0.9,0.8,2,1.1,2.9c0.3,0.7,0.6,1.6,0.8,2.3c0.1,0.5,0.1,1,0.1,1.6c0.1,0.7,0.3,1.3,0.4,2c0.1,0.9,0.1,1.9,0.2,2.8
				c0.1,1.7,0,3.4,0.2,5.1c0.1,0.9,0.1,1.8,0.2,2.6c0.1,0.9-0.1,2,0.4,2.7c0.3,0.5,0.8,0.9,1.2,1.3c0.3,0.3,0.6,0.7,0.9,1.1
				c0.1,0.3,0.2,0.6,0.3,0.8c0.2,0.3,0.4,0.5,0.6,0.8c1.3,2.4,0.6,5.1,1.5,7.6c0.1,0.1,0.1,0.3,0.1,0.4c0.2,0.4,0.3,0.5,0.9,0.6
				c1.1,0.2,2.1,0.7,2.9,1.7c0.9,1,1.6,2.2,2.1,3.4c0.3,0.7,0.3,1.4,0.3,2.2c0.1,0.7,0,1.3,0.5,1.8c1,1,2.4,1.6,3.5,2.4
				c1.2,0.8,2.4,1.6,3.5,2.5c1.2,1,2.1,2.7,2.9,4c0.4,0.6,0.8,0.7,1.4,0.8c0.1,0,0.3,0,0.5,0.1c0.7,0.1,1.4,0.2,2,0.5
				c0.9,0.5,1.4,1.4,2,2.2c1,1.5,2,3.2,3.4,4.4c1.3,1.2,2.6,2.1,4.2,2.7c1.4,0.5,2.7,1.2,4.1,1.6c1.3,0.3,2.7,0.3,3.9,0.9
				c2.3,1.1,4.5,2.5,6.6,3.4c1.1,0.5,2.2,0.6,3.3,0.8c0.6,0.1,1.2,0.3,1.9,0.6c1.6,0.7,3.3,1.5,5.1,1.9c0.7,0.2,1.4,0.2,2.1,0.2
				c0.5,0,0.9,0,1.4,0c1.1-0.1,1.9-0.1,2.6-1c0.8-1,1.6-2.1,2-3.3c0.5-1.3,0.6-2.8,0.8-4.1c0.1-0.7,0-1.4,0.1-2.2
				c0.1-1,0.6-1.7,0.7-2.6c0.1-0.5,0-1.1,0.1-1.7c0.1-0.7,0.5-1.5,0.5-2.3c0-0.3-0.1-0.7-0.1-1c0-0.4,0.2-0.6,0.2-1
				c0-1,0.2-2,0.3-2.9c0.1-0.9,0.2-1.7,0.3-2.6c0.1-0.6,0.3-1.1,0.4-1.7c0.1-0.4,0.1-0.8,0.2-1.2c0-0.3,0.1-0.7,0.1-1
				c0.3-1.8,1-3.4,1.3-5.2c0.5-2.5,0.7-5.1,1.1-7.7c0.1-0.8,0.3-1.6,0.4-2.5c0.8-5.1,0.9-10.5-2-14.3c-0.4-0.5-0.7-0.9-1.1-1.4
				c-0.3-0.4-0.5-0.8-0.8-1.3c-0.6-1.3-0.4-2.7-0.3-4.1c0.1-1,0.1-1.9,0.2-2.9c0.2-1,0.5-2.1,0.7-3.1c0.6-4.1,0.4-8.3,0.9-12.4
				c0.2-1.9,0.2-3.9,0.3-5.8c0-0.5,0.1-0.9,0.1-1.4c0.1-1.5,0.2-2.9,0.2-4.4c0-1.1,0-2.3,0-3.5c0.1-2.5,0.3-5-0.5-7.2
				c-0.2-0.7-0.5-1.3-0.7-2c-0.9-2.3-2.4-4.5-3.9-6.6c-0.3-0.5-0.7-0.9-1-1.4c-2.3-3-4.9-5.9-7.5-8.6c-0.7-0.8-1.4-1.2-2.3-1.8
				c-1.2-0.8-2.3-1.8-3.5-2.6c-2.1-1.4-4.3-2.6-6.4-4c-1.4-0.9-2.9-1.8-4.4-2.6c-1.2-0.7-2.3-1.5-3.4-2.3c-0.6-0.4-1.1-0.8-1.7-1.1
				c-0.9-0.5-1.7-0.7-2.6-1.2c-0.1-0.1-0.3-0.2-0.4-0.2c-0.8-0.5-1.6-0.9-2.4-1.1c-1.7-0.4-3-0.3-3.2-1.6c-0.7-0.2-1.3-0.4-1.9-0.5
				c-2.1-0.3-4-0.1-5.9,0.3c-0.7,0.1-1.4,0.3-2.1,0.3C1144.8,699.9,1143.3,700,1141.9,700.4z"/>
			<path class="st2" d="M1137.8,690.8c-1.8,0.3-3.6,0.8-5.3,1.3c-0.4,0.1-0.8,0.2-1.1,0.3c-0.9,0.3-1.3,1.1-1.3,1
				c-1,0-1.1-0.2-1.8,0.8c-1,1.4-2,2.8-2.8,4.2c-0.2,0.4-0.4,0.7-0.7,1.1c-0.9,1.5-0.9,2.8-1.3,4.4c-0.6,2.3-2.2,5-2.1,7.5
				c0,0.4,0.1,0.8,0.2,1.2c0.2,0.8,0.7,1.4,0.9,2.2c0.4,1.5,0.4,2.7,0.4,4.3c0,0.7,0.1,1.5-0.1,2.2c-0.2,0.5-0.6,1.1-0.8,1.6
				c-0.6,1.6-1.7,2.8-2.3,4.4c-0.6,1.7-1.6,3.1-2.6,4.6c-0.8,1.3-0.9,3.2-0.9,4.8c0,0.5,0,1.1,0,1.6c0,1,0.4,1.7,0.6,2.6
				c0.1,0.3,0.1,0.5,0.1,0.8c0.2,1.8,0.1,3.9,0.1,5.6c0,2.5-0.6,4.9-1,7.4c-0.4,2.3-0.6,4.7-1,6.9c-0.4,2.3-1.3,4.9-0.7,7.2
				c0.3,1,0.9,2.2,1.4,3.3c0.3,0.8,0.8,2,1,2.8c0.2,0.6,0.1,1.3,0.1,1.9c0.1,0.8,0.4,1.6,0.5,2.5c0.1,1.1,0.1,2.3,0.2,3.4
				c0.1,2.1-0.1,4.1,0,6.2c0.1,1.1,0.1,2.1,0.1,3.2c0,1.1-0.2,2.4,0.4,3.3c0.4,0.6,1,1,1.5,1.5c0.4,0.4,0.8,0.8,1.1,1.3
				c0.2,0.3,0.2,0.7,0.4,1c0.2,0.3,0.5,0.6,0.7,0.9c1.6,2.9,0.6,6.2,1.7,9.2c0.1,0.2,0.1,0.3,0.2,0.5c0.2,0.5,0.4,0.6,1.2,0.7
				c1.4,0.1,2.6,0.7,3.7,1.8c1.1,1.2,2,2.5,2.7,4c0.4,0.9,0.3,1.7,0.4,2.7c0,0.9-0.1,1.6,0.6,2.1c1.3,1.1,3,1.8,4.4,2.7
				c1.5,0.9,3.1,1.8,4.5,2.8c1.6,1.1,2.6,3.2,3.7,4.8c0.5,0.7,1,0.8,1.7,0.8c0.2,0,0.4,0,0.6,0.1c0.8,0.1,1.8,0.1,2.6,0.5
				c1.1,0.5,1.8,1.7,2.4,2.7c1.2,1.8,2.5,4,4.1,5.4c1.6,1.4,3.2,2.5,5.3,3.1c1.7,0.5,3.4,1.3,5.2,1.6c1.6,0.3,3.4,0.1,5,0.7
				c2.6,1,5.4,2.1,8,2.6c1.4,0.3,2.6,0.1,4,0.1c0.7,0,1.5,0,2.3,0.3c1.9,0.6,3.9,1.1,5.9,1.4c0.8,0.1,1.5,0.1,2.3,0.1
				c0.5,0,1-0.1,1.5-0.1c1.2-0.1,2.2,0,2.9-0.9c0.9-1,2-2.1,2.5-3.5c0.6-1.4,0.8-3.1,1.2-4.6c0.2-0.8,0.1-1.6,0.2-2.5
				c0.2-1.2,0.9-1.9,1.1-3c0.1-0.6,0.1-1.3,0.2-1.9c0.2-0.8,0.7-1.7,0.8-2.6c0-0.4-0.1-0.8-0.1-1.2c0.1-0.5,0.3-0.6,0.3-1.2
				c0.1-1.2,0.4-2.2,0.5-3.4c0.1-1.1,0.3-1.9,0.5-3c0.2-0.7,0.5-1.3,0.6-1.9c0.1-0.4,0.2-0.9,0.3-1.4c0.1-0.4,0.1-0.8,0.2-1.1
				c0.5-2,1.5-3.8,2-5.9c0.7-2.9,0.9-5.9,1.5-8.8c0.2-0.9,0.4-1.9,0.5-2.8c1-5.8,0.9-12.1-3-16.3c-0.5-0.5-1-1-1.4-1.5
				c-0.4-0.4-0.7-0.9-1.1-1.4c-0.8-1.5-0.7-3-0.6-4.7c0.1-1.1,0-2.2,0.2-3.3c0.2-1.2,0.6-2.4,0.8-3.6c0.7-4.4,0.4-9,0.9-13.4
				c0.2-2.1,0.1-4.2,0.3-6.3c0-0.5,0.1-1,0.1-1.5c0.2-1.6,0.3-3.1,0.2-4.7c0-1.2,0-2.5,0-3.8c0.1-2.7,0.2-5.4-0.9-7.8
				c-0.3-0.7-0.6-1.4-1-2.1c-1.2-2.4-2.9-4.8-4.6-7c-0.4-0.5-0.8-1-1.2-1.5c-2.6-3.1-5.6-6.1-8.5-8.9c-0.9-0.9-1.7-1.4-2.7-2
				c-1.4-0.9-2.7-2-4.2-2.8c-2.5-1.4-5.2-2.7-7.6-4.3c-1.7-1.1-3.4-2-5.1-3c-1.4-0.8-2.6-1.8-3.9-2.7c-0.7-0.5-1.3-0.9-1.9-1.3
				c-1-0.6-2-0.9-3-1.5c-0.2-0.1-0.3-0.2-0.5-0.3c-0.9-0.6-1.8-1.1-2.8-1.5c-1.9-0.7-3.5-0.9-4.3-2.1c-0.8-0.3-1.5-0.5-2.2-0.6
				c-2.5-0.5-4.8-0.6-7.2-0.5c-0.9,0-1.8,0.1-2.7,0C1141.3,690.6,1139.5,690.6,1137.8,690.8z"/>
			<path class="st2" d="M1133.6,681.3c-2.2,0.1-4.3,0.5-6.4,0.8c-0.4,0.1-0.9,0.1-1.4,0.2c-1.1,0.2-1.6,1.2-1.6,1
				c-1.2-0.1-1.3-0.4-2.1,0.7c-1.2,1.5-2.3,3-3.3,4.6c-0.3,0.4-0.5,0.8-0.8,1.2c-1.1,1.6-1.1,3.1-1.6,5c-0.7,2.6-2.7,5.6-2.5,8.5
				c0,0.4,0.1,0.9,0.3,1.3c0.3,0.9,0.9,1.5,1.1,2.5c0.5,1.7,0.5,3,0.5,4.9c0,0.7,0.2,1.7-0.1,2.4c-0.2,0.6-0.7,1.2-1,1.8
				c-0.8,1.7-2.1,3.1-2.8,4.9c-0.8,1.9-2,3.4-3.2,5.1c-1,1.4-1.2,3.6-1.1,5.4c0,0.6,0,1.2,0,1.8c0,1.1,0.5,1.9,0.8,2.9
				c0.1,0.3,0.1,0.6,0.2,0.9c0.3,2,0,4.4,0,6.3c0,2.9-0.8,5.5-1.3,8.3c-0.5,2.6-0.8,5.2-1.3,7.8c-0.6,2.5-1.7,5.5-1,8.1
				c0.3,1.2,1.1,2.5,1.6,3.7c0.4,0.9,0.9,2.3,1.2,3.3c0.2,0.8,0,1.5,0.1,2.2c0.1,1,0.4,1.9,0.5,2.9c0.1,1.3,0.1,2.7,0.1,4
				c0.1,2.5-0.3,4.9-0.2,7.3c0,1.3,0.1,2.5,0.1,3.8c0,1.3-0.3,2.8,0.5,3.8c0.5,0.7,1.2,1.1,1.8,1.7c0.5,0.4,1,0.9,1.3,1.5
				c0.2,0.3,0.3,0.8,0.5,1.2c0.2,0.4,0.6,0.7,0.8,1c2,3.4,0.6,7.3,1.8,10.8c0.1,0.2,0.1,0.4,0.2,0.5c0.2,0.6,0.4,0.7,1.4,0.8
				c1.7,0.1,3.2,0.6,4.5,1.9c1.4,1.3,2.5,2.9,3.2,4.7c0.4,1,0.3,2.1,0.4,3.1c0,1.1-0.2,1.8,0.6,2.5c1.6,1.3,3.7,2,5.4,3
				c1.8,1,3.8,2,5.6,3.1c1.9,1.3,3.2,3.7,4.5,5.6c0.6,0.9,1.2,0.9,2.1,0.9c0.2,0,0.4,0,0.7,0c1,0.1,2.1-0.1,3.1,0.4
				c1.3,0.6,2.1,2,2.9,3.1c1.5,2.1,2.9,4.7,4.8,6.4c1.9,1.7,3.9,2.9,6.3,3.5c2.1,0.5,4.2,1.4,6.2,1.6c2,0.2,4.1-0.1,6,0.5
				c2.9,0.9,6.3,1.6,9.3,1.9c1.6,0.1,3.1-0.4,4.6-0.6c0.8-0.1,1.7-0.2,2.6,0c2.2,0.4,4.4,0.7,6.8,1c0.9,0.1,1.7,0,2.5-0.1
				c0.5,0,1.1-0.1,1.6-0.1c1.3-0.1,2.4,0.1,3.3-0.8c1-1.1,2.3-2.2,3-3.6c0.7-1.6,1.1-3.5,1.6-5.1c0.3-0.9,0.2-1.9,0.4-2.8
				c0.3-1.3,1.2-2.1,1.5-3.3c0.2-0.7,0.1-1.4,0.4-2.1c0.3-0.9,0.9-1.9,1.1-2.9c0.1-0.4-0.1-0.9-0.1-1.4c0.1-0.6,0.3-0.7,0.4-1.3
				c0.1-1.3,0.5-2.5,0.7-3.8c0.2-1.2,0.4-2.2,0.7-3.4c0.2-0.8,0.6-1.4,0.8-2.2c0.1-0.5,0.3-1,0.4-1.5c0.1-0.4,0.2-0.9,0.3-1.3
				c0.6-2.3,1.9-4.3,2.6-6.6c0.9-3.2,1.2-6.6,1.9-9.9c0.2-1,0.4-2.1,0.6-3.2c1.1-6.5,1-13.6-3.9-18.2c-0.6-0.6-1.2-1-1.8-1.5
				c-0.5-0.4-0.9-0.9-1.4-1.5c-1.1-1.6-0.9-3.4-0.9-5.3c0-1.2-0.1-2.5,0.1-3.7c0.2-1.3,0.7-2.7,1-4c0.8-4.8,0.3-9.7,0.8-14.5
				c0.2-2.3,0.1-4.5,0.3-6.8c0-0.5,0.1-1.1,0.1-1.6c0.2-1.7,0.3-3.4,0.3-5.1c0-1.3,0-2.7,0.1-4c0.1-2.9,0.1-5.8-1.2-8.4
				c-0.4-0.7-0.8-1.5-1.2-2.2c-1.5-2.6-3.3-5-5.3-7.3c-0.4-0.5-0.9-1-1.4-1.5c-3-3.2-6.3-6.3-9.5-9.3c-1-1-1.9-1.5-3.2-2.2
				c-1.7-1-3.2-2.1-4.9-3c-2.9-1.5-6-2.9-8.8-4.6c-1.9-1.2-3.9-2.2-5.9-3.4c-1.5-0.9-3-2.1-4.4-3.2c-0.7-0.5-1.4-1-2.2-1.5
				c-1.2-0.7-2.3-1-3.4-1.8c-0.2-0.1-0.3-0.2-0.5-0.3c-1-0.7-2-1.4-3.1-1.8c-2-0.9-3.9-1.4-5.3-2.5c-0.8-0.3-1.7-0.6-2.5-0.8
				c-2.9-0.7-5.6-1.2-8.4-1.3c-1.1-0.1-2.1-0.2-3.2-0.3C1137.9,681.4,1135.7,681.2,1133.6,681.3z"/>
			<path class="st2" d="M1129.5,671.7c-2.5-0.1-5.1,0.2-7.6,0.4c-0.5,0-1.1,0-1.6,0.1c-1.3,0.2-1.9,1.4-1.9,1.1
				c-1.5-0.2-1.5-0.6-2.5,0.6c-1.4,1.7-2.6,3.3-3.8,5.1c-0.3,0.4-0.6,0.9-0.9,1.3c-1.2,1.8-1.2,3.4-1.8,5.5c-0.8,2.8-3.2,6.2-3,9.4
				c0,0.5,0.1,1,0.3,1.5c0.4,1,1.1,1.7,1.4,2.7c0.6,1.9,0.7,3.3,0.7,5.4c0,0.8,0.2,1.9-0.1,2.7c-0.2,0.6-0.8,1.3-1.1,2
				c-0.9,1.9-2.5,3.4-3.3,5.3c-0.9,2.1-2.4,3.8-3.8,5.6c-1.2,1.5-1.4,4-1.4,6c0,0.7,0,1.3,0,2c0,1.2,0.6,2.1,0.9,3.3
				c0.1,0.3,0.1,0.6,0.2,1c0.3,2.2,0,4.9,0,7.1c0,3.2-1,6.1-1.7,9.2c-0.6,2.9-1,5.8-1.7,8.7c-0.7,2.8-2.1,6.1-1.4,9
				c0.3,1.3,1.3,2.8,1.8,4.1c0.5,1.1,1.1,2.6,1.3,3.8c0.2,0.9,0,1.7,0.1,2.6c0.1,1.1,0.5,2.2,0.5,3.4c0.1,1.5,0,3.1,0,4.6
				c0,2.8-0.4,5.6-0.4,8.4c0,1.4,0,2.9,0,4.3c0,1.4-0.3,3.2,0.5,4.4c0.6,0.8,1.4,1.3,2.1,1.9c0.5,0.5,1.2,1.1,1.5,1.7
				c0.3,0.4,0.3,0.9,0.6,1.4c0.3,0.4,0.7,0.7,1,1.2c2.3,3.8,0.6,8.4,2,12.4c0.1,0.2,0.2,0.5,0.2,0.6c0.3,0.7,0.5,0.8,1.7,0.8
				c2,0,3.8,0.6,5.3,2c1.6,1.5,2.9,3.3,3.8,5.3c0.5,1.1,0.4,2.4,0.4,3.6c0,1.2-0.3,2.1,0.7,2.9c1.8,1.4,4.3,2.2,6.4,3.2
				c2.2,1.2,4.5,2.1,6.6,3.4c2.2,1.4,3.8,4.2,5.2,6.4c0.7,1,1.4,1,2.4,1c0.3,0,0.5,0,0.8,0c1.2,0,2.5-0.2,3.6,0.3
				c1.5,0.7,2.4,2.3,3.3,3.6c1.7,2.4,3.3,5.4,5.5,7.3c2.2,1.9,4.5,3.3,7.4,3.9c2.4,0.5,4.9,1.4,7.3,1.6c2.3,0.1,4.8-0.3,7.1,0.3
				c3.3,0.8,7.2,1.2,10.6,1.2c1.8,0,3.5-0.8,5.2-1.3c0.9-0.3,1.9-0.4,3-0.4c2.5,0.2,5,0.4,7.6,0.5c1,0,1.8-0.1,2.7-0.2
				c0.6-0.1,1.1-0.1,1.7-0.2c1.4-0.1,2.6,0.3,3.6-0.7c1.1-1.2,2.7-2.3,3.5-3.8c0.9-1.7,1.3-3.9,1.9-5.7c0.4-1,0.3-2.1,0.5-3.1
				c0.3-1.5,1.5-2.3,1.9-3.7c0.2-0.8,0.2-1.6,0.5-2.4c0.4-1,1.2-2.1,1.3-3.2c0.1-0.5-0.2-1-0.1-1.5c0.1-0.6,0.4-0.7,0.5-1.4
				c0.1-1.5,0.6-2.8,0.8-4.2c0.2-1.4,0.5-2.4,0.9-3.7c0.3-0.9,0.7-1.5,1-2.4c0.2-0.6,0.3-1.1,0.5-1.7c0.1-0.5,0.2-1,0.4-1.4
				c0.8-2.5,2.4-4.7,3.2-7.3c1.1-3.5,1.5-7.3,2.3-11c0.3-1.1,0.5-2.3,0.7-3.5c1.3-7.3,1.1-15.2-4.9-20.1c-0.7-0.6-1.5-1.1-2.2-1.6
				c-0.6-0.5-1.2-1-1.6-1.7c-1.3-1.8-1.2-3.8-1.1-5.9c0-1.4-0.1-2.8,0.1-4.2c0.2-1.5,0.8-3,1.1-4.5c0.8-5.1,0.3-10.3,0.8-15.5
				c0.3-2.4,0-4.8,0.2-7.3c0-0.6,0.1-1.1,0.1-1.7c0.2-1.8,0.3-3.6,0.3-5.4c0-1.4,0.1-2.9,0.1-4.3c0.1-3.1,0-6.3-1.6-8.9
				c-0.5-0.8-0.9-1.6-1.4-2.3c-1.8-2.7-3.7-5.2-6-7.6c-0.5-0.5-1-1.1-1.6-1.6c-3.4-3.3-7-6.5-10.5-9.7c-1.2-1.1-2.2-1.6-3.6-2.3
				c-1.9-1-3.6-2.3-5.6-3.2c-3.3-1.6-6.8-3-10-4.9c-2.2-1.3-4.4-2.5-6.6-3.8c-1.7-1-3.3-2.4-4.9-3.6c-0.8-0.6-1.6-1.2-2.5-1.7
				c-1.3-0.8-2.6-1.1-3.8-2c-0.2-0.1-0.4-0.3-0.6-0.4c-1.1-0.8-2.2-1.6-3.4-2.2c-2.2-1.1-4.4-1.9-6.3-2.9c-0.9-0.4-1.9-0.7-2.8-1
				c-3.2-1-6.3-1.7-9.6-2.1c-1.3-0.2-2.5-0.4-3.7-0.6C1134.4,672.2,1132,671.7,1129.5,671.7z"/>
			<path class="st2" d="M1112.7,663.2c-1.7-0.3-1.7-0.9-2.9,0.5c-1.9,2.3-3.6,4.6-5.4,7c-1.4,2-1.4,3.7-2,6c-1,3.6-4.6,8-3,11.9
				c0.5,1.1,1.3,1.8,1.6,3c0.7,2.2,0.8,3.6,0.8,6c0,0.9,0.2,2.1-0.1,3c-0.3,0.7-1,1.4-1.3,2.1c-1,2.1-2.9,3.7-3.9,5.8
				c-1.1,2.3-2.8,4.1-4.5,6.1c-1.4,1.6-1.6,4.4-1.6,6.5c0,0.7,0,1.5,0,2.2c0,1.4,0.7,2.3,1,3.6c0.6,2.6,0.1,6.1,0.1,8.9
				c0,3.5-1.3,6.7-2.1,10.1c-0.7,3.2-1.2,6.4-2.1,9.6c-0.9,3.1-2.6,6.7-1.7,9.9c0.4,1.4,1.4,3,2.1,4.4c0.5,1.2,1.2,3,1.5,4.2
				c0.2,1,0,1.9,0.1,2.9c0.1,1.3,0.5,2.5,0.6,3.8c0.1,1.7,0,3.5,0,5.2c0,3.2-0.6,6.3-0.5,9.5c0,1.6,0,3.3,0,4.9
				c0,1.6-0.4,3.6,0.5,4.9c0.7,0.9,1.6,1.4,2.4,2.1c0.6,0.6,1.3,1.2,1.8,1.9c0.3,0.4,0.3,1.1,0.6,1.5c0.3,0.5,0.8,0.8,1.1,1.3
				c2.6,4.3,0.6,9.5,2.2,14c0.5,1.4,0.4,1.6,2.2,1.6c2.3,0,4.4,0.6,6.1,2.2c1.8,1.7,3.3,3.7,4.3,6c0.6,1.3,0.4,2.7,0.4,4.1
				c0,1.4-0.3,2.4,0.8,3.2c2.1,1.6,5,2.3,7.3,3.5c2.5,1.3,5.2,2.3,7.6,3.7c2.6,1.5,4.3,4.7,6,7.1c1,1.4,2,1,3.7,1
				c1.4,0,2.9-0.3,4.1,0.3c1.8,0.7,2.8,2.5,3.8,4c1.9,2.7,3.7,6.2,6.2,8.3c2.5,2.2,5.1,3.7,8.4,4.3c2.8,0.5,5.6,1.5,8.4,1.6
				c2.6,0.1,5.5-0.4,8.1,0.1c3.7,0.7,8.1,0.8,11.9,0.4c3.2-0.3,5.8-2.7,9.2-2.7c2.8,0,5.6,0,8.4,0c1.7,0,3.2-0.5,4.8-0.6
				c1.5-0.1,2.8,0.4,3.9-0.6c1.3-1.2,3.1-2.3,4-3.9c1-1.9,1.5-4.3,2.3-6.2c0.4-1.1,0.4-2.3,0.7-3.5c0.4-1.6,1.8-2.5,2.4-4
				c0.3-0.8,0.3-1.7,0.6-2.6c0.5-1.1,1.4-2.3,1.6-3.5c0.1-0.5-0.2-1.1-0.1-1.7c0.2-0.7,0.5-0.8,0.6-1.6c0.2-1.6,0.8-3.1,1-4.6
				c0.2-1.5,0.6-2.6,1.1-4.1c0.3-0.9,0.9-1.7,1.2-2.6c0.4-1.1,0.7-2.3,1.1-3.4c1-2.8,2.8-5.1,3.8-8c1.3-3.9,1.7-8,2.7-12.1
				c2.1-8.8,3.2-19.8-5-25.9c-1.6-1.2-3.3-1.8-4.6-3.5c-1.5-2-1.4-4.1-1.4-6.5c0-1.5-0.2-3.1,0-4.6c0.2-1.6,0.9-3.2,1.2-4.9
				c0.9-5.4,0.2-11,0.8-16.5c0.3-2.6,0-5.2,0.2-7.7c0.2-2.6,0.5-5,0.5-7.6c0-4.7,0.8-10-1.9-14.1c-3-4.5-6.1-8.4-10.1-12
				c-3.8-3.4-7.7-6.7-11.5-10c-1.3-1.2-2.5-1.7-4.1-2.5c-2.2-1.1-4.1-2.5-6.3-3.5c-3.7-1.7-7.7-3.2-11.2-5.2
				c-2.4-1.4-4.9-2.7-7.3-4.2c-2.8-1.7-5.2-4.2-8.1-5.9c-1.4-0.8-2.9-1.3-4.3-2.3c-1.4-1.1-2.8-2.2-4.4-3.1
				c-3.4-1.8-6.9-3.3-10.5-4.5c-3.6-1.2-7.1-2.2-10.8-2.9c-4.2-0.8-8.4-2.1-12.7-2.4c-2.9-0.2-5.8,0-8.7,0c-0.6,0-1.3-0.1-1.9,0
				C1113.3,662.2,1112.7,663.6,1112.7,663.2z"/>
		</g>
		<g>
			<path class="st1" d="M1179.2,902.2c-1.5,0-3.1-0.3-4.6-0.6c-0.4-0.1-0.7-0.1-1.1-0.2c-1.7-0.3-3.1-0.7-4.2-1.2
				c-0.7-0.3-1.3-0.7-1.9-1c-0.5-0.3-1.1-0.7-1.6-0.9c-0.5-0.2-1.1-0.4-1.7-0.6c-0.6-0.2-1.3-0.4-1.9-0.6c-3.8-1.5-8.1-2.1-14.1-2.1
				c-4,0-7.3-0.3-10.6-1.7c-1.4-0.6-2.3-1.4-3.2-2.1c-0.3-0.3-0.6-0.5-1-0.8c-0.3-0.2-0.6-0.4-0.9-0.6c-0.6-0.3-1.2-0.7-1.8-1.3
				c-0.2-0.2-0.4-0.4-0.6-0.6c-0.6-0.6-0.7-0.8-1.6-1.1c-0.8-0.3-1.6-0.5-2.4-0.8c-0.6-0.2-1.1-0.3-1.7-0.5
				c-1.5-0.5-3.1-0.9-4.7-1.3c-1.9-0.5-3.9-0.9-5.8-1.7c-3.9-1.5-7.8-4.6-10.2-8.2c-0.5-0.7-1.1-1.3-1.7-1.9
				c-0.6-0.6-1.2-1.2-1.8-1.9c-0.4-0.5-0.7-1-1-1.5c-0.4-0.6-0.7-1.1-1.1-1.6c-1.2-1.4-2.5-3-3.8-4.7c-0.9-1.1-1.9-2.3-2.9-3.5
				c-0.8-0.9-1.5-1.8-2.2-2.7c-0.3-0.4-0.7-0.9-1-1.3c-0.7-0.9-1.4-1.8-2.2-2.5c-0.5-0.4-1-0.9-1.5-1.3c-1.1-0.9-2.2-1.8-3.2-3
				c-1.7-2.2-3.2-4.3-4.7-7c-1.2-2.1-1.6-4.2-2-6.3c-0.2-0.8-0.3-1.6-0.5-2.4c-0.4-1.5-0.8-3-1.3-4.4c-1-3.2-1.9-6.4-2.2-9.9l0-0.4
				c-0.3-3.4-0.5-6.5-0.5-9.9c0-0.6,0-1.2,0-1.8c0-2.6,0.1-5-0.4-7.4c-0.1-0.4-0.2-0.9-0.2-1.3c-0.2-1-0.3-1.9-0.6-2.9
				c-0.2-0.7-0.5-1.4-0.8-2.1c-0.2-0.5-0.4-0.9-0.6-1.4c-0.1-0.4-0.2-0.7-0.3-0.9c-0.3-0.8-0.4-1.2-1-2.2l-0.2-0.3
				c-0.4-0.6-0.8-1.2-1.1-2.1l-0.1-0.3c-0.6-1.4-1.1-2.8-1.2-4.5l0-0.4c-0.1-3.1-0.3-6.6,0-9.7c0.2-2.3,1.1-4.7,1.7-6.4
				c0.8-2.2,1.3-4.3,1.7-6.9c0.6-3.5,0.9-6.6,0.9-10c0-0.9,0-1.8,0-2.8c0-1.7-0.1-3.5,0-5.3c0.2-3,1.2-5.8,2.3-8.5
				c0.2-0.5,0.4-1.1,0.6-1.6c0.2-0.7,0.5-1.3,0.8-1.9c0.4-0.8,0.7-1.6,0.9-2.4c0.4-1.4,0.9-2.9,1.5-4.4c1-2.3,1.3-4.9,0.9-8.4
				c0-0.3-0.1-0.7-0.1-1.1c-0.1-1.1-0.2-2.4-0.4-3.3c-0.1-0.3-0.2-0.6-0.4-0.9c-0.2-0.4-0.3-0.8-0.5-1.2c-0.1-0.3-0.2-0.6-0.2-0.9
				c-0.1-0.4-0.2-0.9-0.3-1.1c-0.3-0.5-0.6-1-0.9-1.6l-0.5-0.9c-0.2-0.4-0.7-0.7-1.2-1.1c-0.4-0.3-0.8-0.6-1.3-1
				c-0.3-0.3-0.7-0.7-1.1-1c-1.4-1.3-3-2.8-3.6-5c-0.4-1.5-0.4-2.9-0.4-4.3c0-0.3,0-0.7,0-1l0-1c0-1.8,0-3.6,0.3-5.4
				c0.6-4.1,2.8-8,4.7-11.4l0.4-0.8c1.6-2.8,3.6-5.4,5.6-7.9c1-1.3,2.1-2.6,3-4c0.8-1.1,1.7-2.3,2.6-3.3c1.4-1.7,2.7-3.4,3.8-5.2
				c0.2-0.3,0.3-0.6,0.5-0.9c0.3-0.6,0.7-1.2,1.1-1.8c1.3-1.8,2.9-3,4.5-4.2c0.5-0.4,1-0.8,1.5-1.1c0.4-0.3,0.7-0.6,1.1-0.9
				c0.9-0.8,1.8-1.7,3.1-2.3c2-0.8,4.2-1.3,6.3-1.7c0.5-0.1,1-0.2,1.5-0.3c3.4-0.7,6.2-0.9,8.8-0.4l0,0c4.2,0.7,8,1.5,11.2,4.4
				c1.5,1.4,3,2.5,4.7,3.7c1.8,1.3,3.2,3.3,4.4,5l0.6,0.8c0.4,0.6,0.8,1.3,1.2,1.9c0.8,1.4,1.6,2.9,2.7,3.3c0.4,0.1,1.5,0.1,2,0
				c0.8-0.1,1.5-0.2,2.3-0.3c1-0.1,2.1-0.3,3.2-0.3c1.7,0,3.3-0.3,5-0.5c1-0.2,2-0.3,3.1-0.4c2.1-0.2,5.7-0.6,8.2,0
				c1.7,0.4,3.3,1.6,4.7,2.6c0.2,0.2,0.5,0.4,0.7,0.5c2.4,1.7,4.2,3.8,5.9,5.9l0.5,0.6c0.7,0.8,1.4,1.3,2.2,1.9
				c0.5,0.4,1.1,0.7,1.7,1.3c1.8,1.5,3.2,2,5.5,1.9c2.3-0.1,4.8-1.3,7.2-2.4c0.4-0.2,0.8-0.4,1.2-0.6c0.7-0.3,1.4-0.7,2.1-1.2
				c2-1.1,4.2-2.4,6.6-2.5c1,0,3.4,0,4.8,1c0.4,0.3,0.6,0.6,0.8,0.9c0,0.1,0.1,0.1,0.1,0.2c0.2,0.1,0.5,0.3,0.9,0.4
				c0.3,0.1,0.6,0.3,0.9,0.4c2.4,1.3,4.8,3.3,7.2,6.1c0.2,0.2,0.4,0.4,0.5,0.7c0.3,0.4,0.6,0.8,0.9,1c0.2,0.1,0.4,0.1,0.8,0.2
				c0.3,0,0.6,0.1,0.9,0.1c0.8,0.1,1.6,0.2,2.5,0.3c2,0.2,4.3,0.3,6.3,1.7c2.5,1.7,4.2,5.7,5.4,8.3c0.3,0.7,0.6,1.4,0.9,2.1
				c1,2.3,2.1,4.8,3,7.2c1,2.9,2.3,5.1,4,7c1.2,1.4,2.5,2.8,3.8,4.2c0.9,0.9,1.8,1.7,2.8,2.5c1.3,1.1,2.6,2.2,3.7,3.5
				c2.5,3,4.4,6.3,6,10.6c0.3,0.9,1,2.8,1.7,3.9c0.3,0.5,0.6,0.9,0.9,1.3c0.8,1.1,1.7,2.3,2,4.1c0.5,2.5,0.2,5.7,0.1,7
				c-0.1,0.9-0.3,1.7-0.5,2.5c-0.1,0.4-0.2,0.8-0.3,1.2c-0.2,0.8-0.3,1.6-0.4,2.4c-0.1,1-0.3,2.1-0.5,3.2c-0.4,1.7-0.8,3.4-1.3,5
				c-0.7,2.6-1.4,5.2-1.9,7.8c-0.3,1.4-0.6,2.8-1,4.2c-0.7,2.6-1.3,5-1.3,7.4c0,2.8-0.2,6.4-2.4,9.9c-0.6,1-1.3,1.9-2,2.7
				c-0.9,1.2-1.8,2.3-2.4,3.6c-0.2,0.4-0.2,0.5-0.2,0.8c0.2,0.3,0.4,0.5,0.4,0.8c0.1,0.4,0.1,0.8,0.1,1.1c0,0.1,0,0.2,0,0.2
				c0.1,0.2,0.3,0.5,0.6,0.8c0.2,0.2,0.5,0.5,0.7,0.8c0.4,0.6,0.8,1.3,1.2,1.9c0.1,0.2,0.3,0.5,0.4,0.7c0.2,0.4,0.5,0.8,0.8,1.3
				c0.8,1.2,1.8,2.6,2.1,4.2c0.7,2.8,0.1,6.4-0.3,8.3c-0.1,0.7-0.2,1.3-0.3,2c-0.2,1.4-0.4,2.8-0.9,4.2c-0.4,0.9-0.6,1.9-0.9,2.9
				c-0.2,0.6-0.4,1.2-0.5,1.7c-0.6,1.9-1.7,3.6-2.7,5.3c-0.4,0.6-0.7,1.2-1.1,1.8c-0.4,0.7-0.8,1.3-1.3,1.9
				c-0.6,0.9-1.2,1.7-1.5,2.5c-0.2,0.5-0.5,1.1-0.8,1.6c-0.3,0.6-0.7,1.2-0.8,1.7c-0.3,0.9-0.1,2.4,0.5,4.2
				c1.8,5.5,3.6,11.9,2.7,18.8c-0.1,1.1-0.5,2-0.9,2.9c-0.2,0.6-0.5,1.1-0.6,1.7c0,0.1,0,0.2,0,0.3c0,0.4,0,1-0.2,1.5
				c-0.2,0.5-0.5,0.9-0.8,1.3c-0.2,0.2-0.4,0.5-0.4,0.7c-0.2,0.5-0.4,1.1-0.6,1.6c-0.4,0.9-0.7,1.9-1.3,2.9
				c-0.9,1.5-1.9,3.1-3.2,4.5c-0.2,0.3-0.5,0.6-0.7,0.8c-0.3,0.4-0.6,0.7-1,1.1c-0.2,0.2-0.5,0.4-0.6,0.5c-0.1,0.1-0.2,0.1-0.2,0.1
				c-0.1,0.2-0.2,0.3-0.3,0.5c-0.2,0.3-0.3,0.7-0.7,1.1c-1.2,1.5-2.4,3.3-3.1,4.7c-0.3,0.6-0.5,1.2-0.8,1.8
				c-0.7,1.6-1.5,3.3-2.5,4.8c-0.5,0.6-0.9,1.3-1.4,2.1c-1.2,2-2.5,4.2-5.4,5.1c-2.5,0.8-4.8,0.2-6.3-0.3c-0.8-0.3-1.7-0.4-2.7-0.6
				c-1.5-0.2-3.1-0.5-4.6-1.3c-0.4-0.2-0.6-0.4-0.9-0.5c-0.4-0.2-0.4-0.3-0.8-0.3c-1.2-0.1-2.1,0.1-3.2,0.4c-0.5,0.1-1,0.2-1.5,0.4
				c-3.2,0.8-6.3,1.5-8.8,3.4c-0.3,0.2-0.5,0.5-0.8,0.8c-0.4,0.4-0.8,0.8-1.3,1.2c-0.7,0.5-1.4,0.7-2,1c-0.3,0.1-0.5,0.2-0.8,0.3
				c-0.6,0.3-1.1,0.7-1.7,1.1c-1.2,0.8-2.6,1.8-4.4,1.9C1179.6,902.2,1179.4,902.2,1179.2,902.2z M1148.6,892
				c4.2,0,9.6,0.3,14.7,2.3c0.5,0.2,1.1,0.4,1.7,0.6c0.6,0.2,1.3,0.4,1.9,0.6c0.8,0.3,1.5,0.8,2.1,1.2c0.5,0.3,1,0.6,1.4,0.8
				c0.9,0.4,2.1,0.7,3.6,1c0.4,0.1,0.7,0.1,1.1,0.2c1.5,0.3,3.2,0.6,4.5,0.5c1-0.1,1.9-0.7,2.9-1.4c0.7-0.5,1.4-1,2.2-1.3
				c0.3-0.2,0.7-0.3,1-0.4c0.5-0.2,1-0.3,1.3-0.6c0.3-0.2,0.6-0.5,0.9-0.8c0.3-0.4,0.7-0.8,1.2-1.1c3-2.3,6.5-3.1,9.9-3.9
				c0.5-0.1,1-0.2,1.5-0.4c1.1-0.3,2.4-0.5,4.1-0.4c1.1,0.1,1.7,0.4,2.3,0.8c0.2,0.1,0.3,0.2,0.6,0.4c1,0.5,2.2,0.7,3.6,0.9
				c1.1,0.2,2.2,0.3,3.2,0.7c1.8,0.6,3.1,0.7,4.4,0.2c1.8-0.6,2.7-2,3.7-3.8c0.5-0.8,0.9-1.6,1.5-2.4c0.9-1.1,1.5-2.7,2.2-4.2
				c0.3-0.7,0.6-1.3,0.9-1.9c0.8-1.7,2.1-3.6,3.4-5.3c0.1-0.1,0.2-0.3,0.3-0.5c0.1-0.2,0.3-0.5,0.5-0.8c0.3-0.5,0.7-0.7,0.9-0.9
				c0.1,0,0.1-0.1,0.2-0.2c0.3-0.3,0.6-0.6,0.9-1c0.3-0.3,0.5-0.6,0.8-0.9c1.1-1.2,2-2.6,2.8-4c0.5-0.8,0.8-1.6,1.1-2.5
				c0.2-0.6,0.4-1.1,0.7-1.7c0.2-0.5,0.5-0.9,0.8-1.2c0.2-0.2,0.4-0.5,0.4-0.6c0,0,0-0.3,0-0.5c0-0.3,0-0.6,0.1-0.9
				c0.2-0.8,0.5-1.5,0.8-2.1c0.3-0.7,0.6-1.4,0.7-2.1c0.8-6.3-0.9-12.3-2.5-17.4c-0.8-2.5-1-4.5-0.5-6c0.2-0.8,0.6-1.5,1-2.3
				c0.3-0.5,0.5-0.9,0.6-1.3c0.5-1.2,1.2-2.2,1.9-3.1c0.4-0.6,0.8-1.1,1.1-1.7c0.3-0.6,0.7-1.2,1.1-1.8c0.9-1.5,1.9-3.1,2.4-4.6
				c0.2-0.6,0.4-1.1,0.5-1.7c0.3-1,0.6-2,1-3c0.4-1.1,0.6-2.3,0.8-3.6c0.1-0.7,0.2-1.5,0.4-2.2c0.6-2.8,0.7-5.4,0.3-7
				c-0.2-1-1-2.1-1.7-3.2c-0.3-0.5-0.6-1-0.9-1.4c-0.1-0.2-0.3-0.5-0.4-0.8c-0.3-0.6-0.6-1.1-1-1.6c-0.1-0.2-0.3-0.4-0.5-0.5
				c-0.5-0.5-1-1.1-1.3-2c-0.1-0.5-0.1-0.9-0.1-1.2c0,0,0,0,0,0c0,0,0-0.1-0.1-0.1c-0.1-0.2-0.3-0.4-0.4-0.8
				c-0.2-1.2-0.1-1.9,0.4-2.9c0.7-1.6,1.8-2.9,2.8-4.2c0.7-0.8,1.3-1.6,1.8-2.5c1.4-2.2,2-4.7,1.9-8.3c0-2.9,0.7-5.6,1.4-8.3
				c0.4-1.4,0.7-2.6,1-3.9c0.5-2.7,1.2-5.4,1.9-8c0.4-1.6,0.9-3.3,1.2-4.9c0.2-0.9,0.3-1.9,0.5-2.9c0.1-0.9,0.2-1.7,0.4-2.6
				c0.1-0.4,0.2-0.9,0.3-1.3c0.2-0.7,0.3-1.4,0.4-2.1c0.3-2.4,0.2-4.6,0-6.1c-0.2-1.1-0.8-1.9-1.5-2.9c-0.3-0.5-0.7-1-1-1.6
				c-0.7-1.2-1.3-2.8-1.9-4.4c-1.4-3.9-3.2-7-5.4-9.7c-1-1.2-2.1-2.1-3.4-3.2c-1-0.8-2.1-1.7-3-2.7c-1.3-1.4-2.7-2.9-3.9-4.3
				c-2-2.2-3.5-4.8-4.6-8c-0.8-2.3-1.9-4.7-2.9-7c-0.3-0.7-0.6-1.4-0.9-2.1c-1-2.2-2.5-5.8-4.3-7.1c-1.3-0.9-3-1-4.8-1.2
				c-0.9-0.1-1.9-0.1-2.8-0.3c-0.2,0-0.5-0.1-0.7-0.1c-0.6-0.1-1.3-0.1-2.1-0.6c-0.7-0.5-1.2-1.2-1.7-1.7c-0.1-0.2-0.3-0.4-0.4-0.5
				c-2.2-2.5-4.2-4.3-6.3-5.4c-0.2-0.1-0.4-0.2-0.6-0.3c-0.6-0.2-1.2-0.5-1.8-1c-0.3-0.3-0.5-0.6-0.7-0.9c0,0,0-0.1-0.1-0.1
				c-0.4-0.2-1.6-0.4-2.9-0.4c-1.6,0-3.4,1.1-5.1,2.1c-0.8,0.5-1.6,0.9-2.4,1.3c-0.4,0.2-0.8,0.4-1.2,0.6c-2.5,1.2-5.4,2.6-8.3,2.7
				c-3.1,0.2-5.2-0.6-7.5-2.6c-0.5-0.4-1-0.7-1.5-1.1c-0.9-0.6-1.8-1.3-2.8-2.4l-0.5-0.6c-1.7-2-3.3-3.9-5.4-5.4
				c-0.2-0.2-0.5-0.4-0.7-0.5c-1.1-0.8-2.5-1.8-3.6-2.1c-2.1-0.5-5.3-0.1-7.2,0.1c-1,0.1-2,0.3-2.9,0.4c-1.7,0.3-3.5,0.6-5.4,0.6
				c-1,0-1.9,0.1-2.9,0.3c-0.8,0.1-1.6,0.2-2.4,0.3c-1.2,0.1-2.3,0.1-3.2-0.2c-2.2-0.7-3.4-2.9-4.4-4.7c-0.3-0.6-0.7-1.2-1-1.6
				l-0.6-0.8c-1.1-1.6-2.3-3.2-3.7-4.3c-1.7-1.3-3.3-2.4-4.9-3.9c-2.6-2.3-5.7-3-9.6-3.7v0c-2.2-0.4-4.7-0.2-7.7,0.4
				c-0.5,0.1-1,0.2-1.5,0.3c-2,0.4-4,0.8-5.7,1.5c-0.8,0.4-1.5,1-2.3,1.7c-0.4,0.4-0.8,0.7-1.2,1.1c-0.5,0.4-1,0.8-1.5,1.2
				c-1.5,1.1-2.9,2.2-3.9,3.6c-0.3,0.4-0.6,1-0.9,1.5c-0.2,0.3-0.4,0.7-0.6,1c-1.2,2-2.6,3.8-4.1,5.6c-0.8,1-1.7,2.1-2.5,3.2
				c-1,1.4-2.1,2.7-3.1,4.1c-1.9,2.4-3.9,4.9-5.4,7.5l-0.4,0.8c-1.9,3.3-3.8,6.8-4.3,10.3c-0.2,1.6-0.2,3.2-0.2,5l0,1
				c0,0.4,0,0.7,0,1.1c0,1.2-0.1,2.4,0.2,3.4c0.4,1.4,1.6,2.5,2.8,3.6c0.4,0.4,0.8,0.7,1.2,1.1c0.2,0.2,0.6,0.5,0.9,0.7
				c0.7,0.5,1.5,1.1,2,2.1l0.5,1c0.3,0.5,0.5,1,0.8,1.5c0.4,0.7,0.5,1.4,0.7,2c0,0.2,0.1,0.5,0.2,0.7c0.1,0.2,0.2,0.5,0.3,0.8
				c0.2,0.4,0.4,0.9,0.5,1.4c0.3,1.1,0.4,2.5,0.5,3.7c0,0.4,0.1,0.7,0.1,1c0.4,4,0.1,7.1-1.2,9.9c-0.6,1.4-1.1,2.7-1.4,4
				c-0.3,1.1-0.7,2-1.1,2.9c-0.3,0.6-0.5,1.1-0.7,1.7c-0.2,0.5-0.4,1.1-0.6,1.6c-0.9,2.5-1.9,5.1-2.1,7.7c-0.1,1.6-0.1,3.4,0,5
				c0,1,0,1.9,0,2.8c0,3.6-0.3,6.8-1,10.5c-0.5,2.6-0.9,5-1.9,7.4c-0.6,1.5-1.4,3.7-1.5,5.6c-0.3,2.9-0.1,6.3,0,9.3l0,0.4
				c0.1,1.2,0.5,2.3,1,3.5l0.1,0.3c0.2,0.6,0.5,1,0.9,1.5l0.2,0.4c0.8,1.3,1.1,2,1.4,2.9c0.1,0.3,0.2,0.5,0.3,0.9
				c0.2,0.4,0.3,0.8,0.5,1.2c0.3,0.8,0.7,1.6,0.9,2.5c0.3,1,0.4,2.1,0.6,3.1c0.1,0.4,0.1,0.8,0.2,1.2c0.5,2.7,0.5,5.4,0.4,8
				c0,0.6,0,1.2,0,1.8c0,3.3,0.2,6.4,0.5,9.7l0,0.4c0.2,3.1,1.1,6.1,2.1,9.2c0.4,1.5,0.9,3,1.3,4.5c0.2,0.9,0.4,1.7,0.5,2.6
				c0.4,1.9,0.7,3.7,1.6,5.4c1.4,2.6,2.8,4.6,4.4,6.6c0.8,1,1.7,1.7,2.7,2.5c0.5,0.4,1.1,0.9,1.7,1.4c1,0.9,1.8,2,2.6,3
				c0.3,0.4,0.6,0.8,0.9,1.2c0.7,0.9,1.4,1.7,2.2,2.6c1,1.2,2.1,2.4,3,3.6c1.3,1.7,2.6,3.3,3.7,4.6c0.5,0.6,0.9,1.3,1.3,1.9
				c0.3,0.5,0.6,0.9,0.9,1.3c0.4,0.6,0.9,1,1.5,1.6c0.7,0.7,1.4,1.4,2.1,2.3c2.1,3.1,5.5,5.9,8.8,7.1c1.8,0.7,3.6,1.1,5.5,1.6
				c1.6,0.4,3.3,0.8,5,1.4c0.5,0.2,1.1,0.3,1.6,0.5c0.9,0.3,1.7,0.5,2.6,0.9c1.5,0.6,1.9,1,2.7,1.9c0.1,0.2,0.3,0.3,0.5,0.5
				c0.3,0.3,0.7,0.5,1.1,0.8c0.4,0.2,0.8,0.5,1.3,0.8c0.4,0.3,0.7,0.6,1,0.8c0.9,0.7,1.6,1.3,2.6,1.7c2.8,1.2,5.7,1.5,9.3,1.5
				C1148.2,892,1148.4,892,1148.6,892z"/>
		</g>
	</g>
</g>
</svg>
